# 3ds Max Wavefront OBJ Exporter v0.99 - (c)2007 guruware
# File Created: 09.10.2026 11:46:28

#
# object ANTONIO
#

v  -2.3392 21.3001 3.0530
v  -0.4462 21.3001 3.0530
v  -0.4462 25.8361 2.5799
v  -2.3392 25.8361 2.5799
v  -0.4462 27.8232 2.5128
v  -2.3392 27.8232 2.5128
v  -0.4462 30.2360 2.8008
v  -2.3392 30.2360 2.8008
v  -3.4683 33.0080 -0.6050
v  -3.4290 33.0708 -1.3632
v  -4.6450 32.7779 -1.1198
v  -4.6438 32.6936 -0.5409
v  -16.7476 31.6353 -0.3595
v  -17.1492 31.6348 -0.3601
v  -17.0394 31.4514 -0.0802
v  -16.6248 31.4517 -0.0789
v  -16.7904 31.5442 -0.6863
v  -17.1626 31.5432 -0.6855
v  -16.9739 31.1990 -0.8196
v  -17.3356 31.1980 -0.8186
v  -16.9341 30.7997 -0.6742
v  -17.2503 30.8034 -0.6737
v  -16.9749 30.7302 -0.3550
v  -17.3190 30.7268 -0.3554
v  -16.7949 30.7478 -0.0780
v  -17.1807 30.7509 -0.0792
v  -16.7976 31.0937 -0.0082
v  -17.1911 31.0929 -0.0070
v  -4.4295 14.2124 -0.2460
v  -4.7445 12.5803 -0.2525
v  -3.9339 12.9482 1.3938
v  -3.6683 14.5109 1.3209
v  -4.0094 2.8344 0.6994
v  -4.6703 2.8581 0.3813
v  -4.6703 1.9767 0.3813
v  -4.0094 2.0356 0.6994
v  -4.9489 2.4901 -0.1811
v  -4.9489 1.9703 -0.1811
v  -4.6768 2.5649 -0.7380
v  -4.6768 2.0451 -0.7380
v  -3.9280 2.6109 -0.8591
v  -3.9280 2.0911 -0.8591
v  -3.5909 2.5446 -0.1734
v  -3.5909 2.0248 -0.1734
v  -5.3771 1.3582 -0.4457
v  -4.9712 1.2562 -1.2368
v  -4.9712 0.6738 -1.2368
v  -5.3771 0.5910 -0.4457
v  -3.5914 1.3237 -1.4366
v  -3.5914 0.7247 -1.4366
v  -3.2326 1.3135 -0.3722
v  -3.2326 0.6513 -0.3722
v  -1.2206 32.9451 0.1913
v  -0.4462 32.9134 0.3529
v  -0.4462 34.8719 0.3529
v  -1.2206 34.9036 0.1913
v  -17.4280 31.8616 -0.3564
v  -18.4043 31.7639 -0.3658
v  -18.1366 31.5902 0.0475
v  -17.2776 31.5969 0.0611
v  -18.2594 31.7160 -0.8192
v  -17.4674 31.7280 -0.8295
v  -17.7250 31.2147 -1.0167
v  -18.5710 31.2166 -0.9209
v  -18.3074 30.6838 -0.8058
v  -17.5938 30.6588 -0.8147
v  -17.6903 30.4968 -0.3483
v  -18.5339 30.6035 -0.3587
v  -18.2964 30.5976 0.0499
v  -17.5097 30.5737 0.0632
v  -17.4913 31.0616 0.1842
v  -18.4492 31.0872 0.0973
v  -1.7126 39.5445 1.1832
v  -0.4462 39.7752 2.0791
v  -0.4462 40.8413 0.5482
v  -2.5515 39.9408 0.0736
v  -0.4462 40.5889 -2.0934
v  -2.2084 40.0183 -1.3527
v  -0.4462 35.7145 2.0729
v  -1.9355 35.9432 1.0224
v  -1.3547 34.9309 1.4977
v  -0.4462 34.7939 1.6162
v  -3.6472 1.2959 4.5670
v  -4.7696 1.2698 4.5447
v  -4.7920 0.7918 4.5447
v  -3.6361 0.8273 4.5670
v  -5.3494 1.5978 2.4423
v  -5.3381 0.4459 2.4423
v  -3.0970 1.6975 2.6368
v  -3.0866 0.4593 2.6368
v  -2.8996 21.1275 2.0783
v  -0.4462 20.9271 2.4981
v  -3.8266 21.1777 0.9262
v  -3.8266 21.0760 -0.3386
v  -3.6691 20.8911 -0.2428
v  -3.8266 21.1474 -1.6866
v  -3.0941 20.8072 -1.9475
v  -2.3392 21.1659 -2.9794
v  -0.4462 21.1659 -2.9794
v  -0.4462 20.7626 -2.5663
v  -3.2802 21.3780 2.5390
v  -2.9861 25.7229 1.9892
v  -2.8949 28.2251 1.8546
v  -3.4755 30.9370 1.9639
v  -2.3973 32.1196 2.0849
v  -2.9946 32.1354 1.6732
v  -0.4462 31.8749 2.0849
v  -3.5485 21.2439 -2.6269
v  -3.2572 25.4909 -2.1598
v  -2.3392 25.4172 -2.6587
v  -0.4462 25.4172 -2.7079
v  -3.2517 28.3964 -2.4965
v  -2.3392 28.2924 -2.8635
v  -0.4462 28.2924 -2.8635
v  -3.8181 31.5453 -2.7962
v  -2.4555 31.5453 -3.4454
v  -0.4462 31.5453 -3.5375
v  -3.2148 33.0902 -1.7624
v  -2.3973 33.0392 -2.1012
v  -0.4462 33.1251 -2.3335
v  -0.4740 32.9134 0.9847
v  -1.9972 32.9451 0.7591
v  -3.4613 32.7702 0.7340
v  -2.3967 33.2358 -0.6165
v  -1.8263 33.2995 -1.5020
v  -0.4462 33.4221 -1.9143
v  -4.2437 31.1325 1.4097
v  -3.7221 29.0405 0.7612
v  -3.7546 25.4909 0.9754
v  -18.9291 31.1911 -0.3934
v  -3.7221 28.9121 -0.3747
v  -3.7553 25.4909 -0.3189
v  -3.7221 29.4663 -1.4845
v  -3.7557 25.4909 -1.5570
v  -4.2322 31.3965 -2.2916
v  -4.6368 32.3201 0.4202
v  -5.2629 31.3371 -1.7534
v  -4.9268 29.9496 -1.1852
v  -4.8976 29.5650 -0.3834
v  -4.8976 29.6486 0.4348
v  -5.2384 31.1443 0.8954
v  -10.1786 32.2291 -0.4619
v  -10.1716 32.0151 0.2485
v  -8.8669 32.0584 0.2693
v  -8.8739 32.2988 -0.4760
v  -9.0210 32.3073 -1.0072
v  -10.3707 32.2196 -0.9939
v  -9.1677 31.3107 -1.4244
v  -10.4166 31.3068 -1.3686
v  -10.5995 30.2696 -1.0145
v  -9.2623 30.2257 -1.0360
v  -10.4324 30.0625 -0.3916
v  -9.1277 29.9886 -0.3903
v  -10.4324 30.0741 0.2304
v  -9.1277 30.0137 0.2577
v  -9.0453 31.1461 0.5922
v  -10.1574 31.1452 0.5423
v  -7.6740 32.0602 0.2595
v  -7.6810 32.3144 -0.4857
v  -7.7869 32.3389 -0.9937
v  -7.9261 31.3085 -1.4317
v  -8.0397 30.2262 -1.0286
v  -7.9348 29.9719 -0.3898
v  -7.9348 30.0082 0.2544
v  -7.8086 31.1482 0.5952
v  -16.5055 31.8428 -0.3675
v  -16.4101 31.6050 0.0428
v  -16.5840 31.7354 -0.8069
v  -16.7352 31.2233 -1.0068
v  -16.7468 30.6463 -0.7964
v  -16.7420 30.5211 -0.3531
v  -16.5932 30.5604 0.0418
v  -16.5463 31.0824 0.1678
v  -2.6926 20.5953 1.3465
v  -1.1831 20.5300 1.6966
v  -3.6035 20.2274 -0.2483
v  -2.7110 20.3022 -1.8276
v  -1.0439 20.3482 -1.3244
v  -0.5031 19.7008 -0.2266
v  -0.4462 19.7827 -0.2263
v  -2.0320 14.6411 1.8585
v  -3.7547 13.7290 -1.7958
v  -1.9677 13.5726 -1.6353
v  -1.2044 13.8347 -0.2246
v  -4.1374 11.1574 1.3103
v  -5.1145 2.8581 1.0199
v  -3.6521 2.8344 1.7238
v  -2.4959 10.9211 1.9496
v  -4.7757 11.7154 -0.2454
v  -5.7310 2.4901 -0.2247
v  -5.1289 2.5649 -1.4571
v  -4.0032 11.9522 -1.7892
v  -3.4718 2.6109 -1.7250
v  -2.1630 11.9450 -1.7018
v  -1.4146 11.7943 -0.2241
v  -2.7258 2.5446 -0.2078
v  -2.2069 12.9020 2.0107
v  -3.9528 12.6551 -1.8825
v  -2.0208 12.7011 -1.7551
v  -1.2703 12.3202 -0.2300
v  -1.2267 33.4547 -1.1245
v  -1.6887 33.2358 -0.5696
v  -1.6887 35.2578 -0.3861
v  -1.2267 35.6029 -0.9162
v  -0.4462 39.3885 -3.0536
v  -2.1628 39.1968 -2.2167
v  -2.9246 38.9142 -0.1680
v  -1.9802 38.7240 1.4879
v  -0.4462 33.5747 -1.4242
v  -2.2086 35.4810 -0.2979
v  -1.8263 35.6029 -1.2475
v  -0.4462 35.9457 -2.0021
v  -0.4462 35.7341 -1.3661
v  -0.4462 36.4747 2.3792
v  -0.4462 37.2941 2.2713
v  -1.0689 37.4253 1.7777
v  -1.4217 37.0723 1.6625
v  -2.2656 36.5451 -1.6626
v  -2.7617 36.3320 -0.3638
v  -2.9798 37.2586 -0.3774
v  -2.1241 37.5839 -2.2500
v  -2.2841 36.7945 1.2795
v  -2.0391 38.3656 -2.3733
v  -2.9857 38.0468 -0.4090
v  -2.5198 37.8554 0.8969
v  -2.3795 38.2880 1.0657
v  -0.4462 38.3117 2.3323
v  -0.4462 36.8704 -2.8401
v  -1.9456 38.3170 1.5477
v  -1.2615 37.9968 1.7370
v  -2.1414 37.1484 1.4265
v  -2.4669 37.3924 0.9939
v  -1.0589 37.3114 0.2896
v  -0.8433 37.5336 0.3605
v  -1.2666 37.6950 0.1001
v  -1.3806 37.3600 0.0596
v  -1.3475 37.5575 1.3012
v  -1.5571 37.3196 1.1997
v  -1.9520 37.3381 1.2528
v  -1.4906 38.0769 -0.1985
v  -1.5384 37.7464 -0.3293
v  -1.2401 38.0903 0.1599
v  -2.1808 37.7703 1.0613
v  -2.0708 38.0618 1.1859
v  -1.8156 38.0959 1.3544
v  -0.8849 37.8968 0.2920
v  -1.4578 37.8952 1.2640
v  -1.6161 37.4757 -0.3266
v  -2.1785 37.4830 1.0963
v  -0.4462 37.9314 -3.1249
v  -0.4462 38.6374 -3.0905
v  1.4467 21.3001 3.0530
v  1.4467 25.8361 2.5799
v  1.4467 27.8232 2.5128
v  1.4467 30.2360 2.8008
v  2.5758 33.0080 -0.6050
v  3.7513 32.6936 -0.5409
v  3.7525 32.7779 -1.1198
v  2.5365 33.0708 -1.3632
v  15.8551 31.6353 -0.3595
v  15.7324 31.4517 -0.0789
v  16.1469 31.4514 -0.0802
v  16.2568 31.6348 -0.3601
v  16.2701 31.5432 -0.6855
v  15.8980 31.5442 -0.6863
v  16.0815 31.1990 -0.8196
v  16.4431 31.1980 -0.8186
v  16.3578 30.8034 -0.6737
v  16.0416 30.7997 -0.6742
v  16.0824 30.7302 -0.3550
v  16.4266 30.7268 -0.3554
v  16.2883 30.7509 -0.0792
v  15.9025 30.7478 -0.0780
v  15.9051 31.0937 -0.0082
v  16.2987 31.0929 -0.0070
v  3.5371 14.2124 -0.2460
v  2.7759 14.5109 1.3209
v  3.0414 12.9482 1.3938
v  3.8520 12.5803 -0.2525
v  3.1170 2.8344 0.6994
v  3.1170 2.0356 0.6994
v  3.7778 1.9767 0.3813
v  3.7778 2.8581 0.3813
v  4.0564 1.9703 -0.1811
v  4.0564 2.4901 -0.1811
v  3.7843 2.0451 -0.7380
v  3.7843 2.5649 -0.7380
v  3.0355 2.0911 -0.8591
v  3.0355 2.6109 -0.8591
v  2.6984 2.0248 -0.1734
v  2.6984 2.5446 -0.1734
v  4.4846 1.3582 -0.4457
v  4.4846 0.5910 -0.4457
v  4.0787 0.6738 -1.2368
v  4.0787 1.2562 -1.2368
v  2.6989 0.7247 -1.4366
v  2.6989 1.3237 -1.4366
v  2.3402 0.6513 -0.3722
v  2.3402 1.3135 -0.3722
v  0.3282 32.9451 0.1913
v  0.3282 34.9036 0.1913
v  16.5356 31.8616 -0.3564
v  16.3852 31.5969 0.0611
v  17.2441 31.5902 0.0475
v  17.5118 31.7639 -0.3658
v  17.3669 31.7160 -0.8192
v  16.5749 31.7280 -0.8295
v  16.8326 31.2147 -1.0167
v  17.6785 31.2166 -0.9209
v  17.4150 30.6838 -0.8058
v  16.7014 30.6588 -0.8147
v  16.7979 30.4968 -0.3483
v  17.6415 30.6035 -0.3587
v  17.4040 30.5976 0.0499
v  16.6173 30.5737 0.0632
v  16.5989 31.0616 0.1842
v  17.5567 31.0872 0.0973
v  0.8202 39.5445 1.1832
v  1.6590 39.9408 0.0736
v  1.3159 40.0183 -1.3527
v  0.4623 34.9309 1.4977
v  1.0430 35.9432 1.0224
v  2.7547 1.2959 4.5670
v  2.7436 0.8273 4.5670
v  3.8995 0.7918 4.5447
v  3.8771 1.2698 4.5447
v  4.4570 1.5978 2.4423
v  4.4457 0.4459 2.4423
v  2.1941 0.4593 2.6368
v  2.2046 1.6975 2.6368
v  2.0072 21.1275 2.0783
v  2.9341 21.1777 0.9262
v  2.7767 20.8911 -0.2428
v  2.9341 21.0760 -0.3386
v  2.2016 20.8072 -1.9475
v  2.9341 21.1474 -1.6866
v  1.4467 21.1659 -2.9794
v  2.3877 21.3780 2.5390
v  2.0936 25.7229 1.9892
v  2.0025 28.2251 1.8546
v  2.5831 30.9370 1.9639
v  2.1022 32.1354 1.6732
v  1.5048 32.1196 2.0849
v  2.6560 21.2439 -2.6269
v  1.4467 25.4172 -2.6587
v  2.3647 25.4909 -2.1598
v  1.4467 28.2924 -2.8635
v  2.3593 28.3964 -2.4965
v  1.5631 31.5453 -3.4454
v  2.9256 31.5453 -2.7962
v  1.5048 33.0392 -2.1012
v  2.3224 33.0902 -1.7624
v  1.1047 32.9451 0.7591
v  2.5689 32.7702 0.7340
v  1.5043 33.2358 -0.6165
v  0.9338 33.2995 -1.5020
v  3.3512 31.1325 1.4097
v  2.8296 29.0405 0.7612
v  2.8622 25.4909 0.9754
v  18.0366 31.1911 -0.3934
v  2.8628 25.4909 -0.3189
v  2.8296 28.9121 -0.3747
v  2.8632 25.4909 -1.5570
v  2.8296 29.4663 -1.4845
v  3.3397 31.3965 -2.2916
v  3.7443 32.3201 0.4202
v  4.3704 31.3371 -1.7534
v  4.0344 29.9496 -1.1852
v  4.0051 29.5650 -0.3834
v  4.0051 29.6486 0.4348
v  4.3459 31.1443 0.8954
v  9.2862 32.2291 -0.4619
v  7.9815 32.2988 -0.4760
v  7.9745 32.0584 0.2693
v  9.2792 32.0151 0.2485
v  8.1286 32.3073 -1.0072
v  9.4782 32.2196 -0.9939
v  8.2753 31.3107 -1.4244
v  9.5241 31.3068 -1.3686
v  9.7070 30.2696 -1.0145
v  8.3699 30.2257 -1.0360
v  9.5399 30.0625 -0.3916
v  8.2353 29.9886 -0.3903
v  9.5399 30.0741 0.2304
v  8.2353 30.0137 0.2577
v  8.1529 31.1461 0.5922
v  9.2650 31.1452 0.5423
v  6.7885 32.3144 -0.4857
v  6.7815 32.0602 0.2595
v  6.8945 32.3389 -0.9937
v  7.0336 31.3085 -1.4317
v  7.1472 30.2262 -1.0286
v  7.0423 29.9719 -0.3898
v  7.0423 30.0082 0.2544
v  6.9161 31.1482 0.5952
v  15.6131 31.8428 -0.3675
v  15.5176 31.6050 0.0428
v  15.6915 31.7354 -0.8069
v  15.8427 31.2233 -1.0068
v  15.8544 30.6463 -0.7964
v  15.8496 30.5211 -0.3531
v  15.7008 30.5604 0.0418
v  15.6539 31.0824 0.1678
v  0.2906 20.5300 1.6966
v  1.8002 20.5953 1.3465
v  2.7111 20.2274 -0.2483
v  1.8186 20.3022 -1.8276
v  0.1514 20.3482 -1.3244
v  -0.3894 19.7008 -0.2266
v  1.1395 14.6411 1.8585
v  2.8623 13.7290 -1.7958
v  1.0752 13.5726 -1.6353
v  0.3119 13.8347 -0.2246
v  3.2450 11.1574 1.3103
v  1.6034 10.9211 1.9496
v  2.7596 2.8344 1.7238
v  4.2221 2.8581 1.0199
v  3.8833 11.7154 -0.2454
v  4.8386 2.4901 -0.2247
v  4.2364 2.5649 -1.4571
v  3.1108 11.9522 -1.7892
v  2.5794 2.6109 -1.7250
v  1.2705 11.9450 -1.7018
v  0.5222 11.7943 -0.2241
v  1.8334 2.5446 -0.2078
v  1.3145 12.9020 2.0107
v  3.0604 12.6551 -1.8825
v  1.1283 12.7011 -1.7551
v  0.3779 12.3202 -0.2300
v  0.3342 33.4547 -1.1245
v  0.3342 35.6029 -0.9162
v  0.7962 35.2578 -0.3861
v  0.7962 33.2358 -0.5696
v  1.2703 39.1968 -2.2167
v  2.0322 38.9142 -0.1601
v  1.0878 38.7240 1.4935
v  1.3162 35.4810 -0.2979
v  0.9338 35.6029 -1.2475
v  0.5292 37.0723 1.6160
v  0.1764 37.4253 1.7154
v  1.3732 36.5451 -1.6626
v  1.2316 37.5839 -2.2500
v  2.0874 37.2586 -0.3695
v  1.8693 36.3320 -0.3638
v  1.3917 36.7945 1.2850
v  1.1466 38.3656 -2.3733
v  2.0933 38.0468 -0.3989
v  1.4852 38.2859 1.2597
v  1.6274 37.8554 1.0989
v  0.3691 37.9968 1.6905
v  1.0531 38.3170 1.6552
v  1.5745 37.3924 1.1879
v  1.2489 37.1484 1.5339
v  0.6881 37.3032 0.2896
v  1.0098 37.3518 0.0596
v  0.8958 37.6868 0.1001
v  0.4725 37.5254 0.3605
v  0.6682 37.3193 1.1398
v  0.4579 37.5544 1.2104
v  1.0582 37.3357 1.3014
v  1.1199 38.0687 -0.1985
v  0.8693 38.0820 0.1599
v  1.1676 37.7382 -0.3293
v  1.1528 38.0223 1.3057
v  1.2916 37.7710 1.1965
v  0.9201 38.0325 1.3319
v  0.5141 37.8886 0.2920
v  0.5653 37.8897 1.1962
v  1.2453 37.4675 -0.3266
v  1.2872 37.4847 1.2230
# 470 vertices

vn -0.2332 0.1009 0.9672
vn 0.0000 0.1037 0.9946
vn 0.0000 0.0688 0.9976
vn -0.3588 0.0771 0.9302
vn 0.0000 -0.0425 0.9991
vn -0.4211 -0.0190 0.9068
vn 0.0000 0.1460 0.9893
vn -0.3068 0.0728 0.9490
vn -0.2099 0.9682 0.1364
vn -0.1848 0.9823 0.0294
vn -0.1903 0.9732 0.1289
vn -0.2089 0.9519 0.2241
vn -0.0022 0.9763 0.2166
vn -0.0014 0.9954 0.0960
vn -0.0021 0.8362 0.5484
vn -0.0023 0.8363 0.5482
vn -0.0030 0.9633 -0.2683
vn -0.0018 0.9630 -0.2697
vn -0.0033 0.3615 -0.9324
vn -0.0037 0.3614 -0.9324
vn -0.0032 0.3616 -0.9323
vn -0.0028 0.3617 -0.9323
vn -0.0032 -0.3441 -0.9389
vn -0.0055 -0.3427 -0.9394
vn -0.0038 -0.3438 -0.9391
vn -0.0017 -0.3451 -0.9386
vn -0.0006 -0.9983 -0.0575
vn 0.0098 -0.9957 -0.0924
vn -0.0008 -0.9748 -0.2233
vn -0.0118 -0.9767 -0.2142
vn -0.0083 -0.9976 0.0688
vn 0.0014 -0.9971 0.0760
vn -0.0006 0.0224 0.9997
vn 0.0032 -0.0318 0.9995
vn -0.0004 -0.2024 0.9793
vn -0.0047 -0.1977 0.9802
vn -0.0031 0.1952 0.9808
vn -0.0002 0.1971 0.9804
vn -0.9001 0.1515 0.4085
vn -0.9070 0.1071 0.4072
vn -0.9006 0.1347 0.4133
vn -0.8980 0.1459 0.4151
vn -0.4337 -0.0000 0.9011
vn -0.8961 -0.0000 0.4439
vn -0.8985 -0.0000 -0.4390
vn -0.8985 0.0000 -0.4390
vn -0.1596 -0.0000 -0.9872
vn 0.8974 -0.0000 -0.4412
vn 0.8974 0.0000 -0.4412
vn 0.9017 -0.0000 0.4324
vn -0.9766 0.0000 -0.2149
vn -0.8897 0.0000 -0.4565
vn -0.9758 -0.0013 -0.2186
vn -0.1433 0.0000 -0.9897
vn 0.9476 -0.0000 -0.3194
vn 0.9836 0.0010 -0.1805
vn 0.9837 -0.0000 -0.1801
vn -0.2043 0.0000 0.9789
vn 0.0000 0.0000 1.0000
vn -0.0451 0.9794 0.1967
vn -0.1000 0.9865 0.1294
vn -0.0713 0.8813 0.4672
vn -0.0151 0.8420 0.5393
vn -0.0751 0.9819 -0.1740
vn -0.0182 0.9626 -0.2703
vn -0.0521 0.3176 -0.9468
vn -0.1080 0.2628 -0.9588
vn -0.0743 0.2961 -0.9523
vn -0.0176 0.3503 -0.9365
vn -0.0760 -0.2950 -0.9525
vn -0.1092 -0.2612 -0.9591
vn -0.0600 -0.3109 -0.9485
vn -0.0238 -0.3464 -0.9378
vn -0.0656 -0.9962 -0.0565
vn -0.1238 -0.9877 -0.0959
vn -0.0923 -0.9592 -0.2674
vn -0.0371 -0.9416 -0.3346
vn -0.0998 -0.9901 0.0986
vn -0.0330 -0.9797 0.1976
vn -0.0452 0.0233 0.9987
vn -0.0903 0.0012 0.9959
vn -0.0725 -0.1591 0.9846
vn -0.0237 -0.2397 0.9706
vn -0.0629 0.1773 0.9821
vn -0.0172 0.2307 0.9729
vn -0.5473 0.5609 0.6211
vn -0.0005 0.5478 0.8366
vn 0.0000 0.8001 0.5999
vn -0.6896 0.4363 0.5780
vn -0.0000 0.9972 -0.0743
vn 0.0000 0.9955 -0.0951
vn -0.3616 0.9299 -0.0673
vn -0.3848 0.9220 -0.0424
vn 0.0000 -0.2984 0.9544
vn -0.7577 -0.3709 0.5369
vn -0.5870 -0.1924 0.7864
vn 0.0000 -0.4444 0.8958
vn -0.0194 -0.0001 0.9998
vn -0.0199 0.0009 0.9998
vn -0.0197 0.0006 0.9998
vn -0.0193 -0.0005 0.9998
vn -0.9912 -0.0050 0.1322
vn -0.9915 -0.0097 0.1296
vn 0.9936 0.0084 0.1123
vn 0.9940 0.0089 0.1090
vn -0.1324 -0.9461 0.2957
vn -0.2356 -0.9145 0.3288
vn 0.0000 -0.8636 0.5042
vn 0.0000 -0.8299 0.5578
vn -0.3325 -0.9242 0.1879
vn -0.6980 -0.7112 -0.0830
vn -0.6969 -0.7164 -0.0326
vn -0.3989 -0.9010 -0.1708
vn -0.3235 -0.7590 -0.5651
vn -0.0756 -0.9381 -0.3380
vn 0.0000 -0.7858 -0.6185
vn 0.0000 -0.8076 -0.5897
vn -0.7686 0.1070 0.6307
vn -0.7601 0.0687 0.6462
vn -0.7805 -0.0371 0.6241
vn -0.5980 0.0700 0.7984
vn -0.2574 0.3676 0.8937
vn -0.5282 0.4455 0.7228
vn -0.0000 0.3778 0.9259
vn -0.3046 0.0811 -0.9490
vn -0.4652 0.0261 -0.8848
vn -0.2484 0.0206 -0.9684
vn -0.1385 0.0701 -0.9879
vn -0.0000 0.0091 -1.0000
vn 0.0000 0.0637 -0.9980
vn -0.3889 -0.1419 -0.9103
vn -0.2045 -0.1367 -0.9693
vn -0.0000 -0.1342 -0.9910
vn -0.4245 -0.1612 -0.8910
vn -0.2343 -0.1740 -0.9565
vn 0.0000 -0.1860 -0.9825
vn -0.5336 0.6181 -0.5773
vn -0.5545 0.6014 -0.5751
vn -0.2150 0.6439 -0.7343
vn -0.1937 0.6433 -0.7407
vn -0.0000 0.6392 -0.7690
vn 0.0000 0.6062 -0.7953
vn -0.2797 -0.9214 0.2699
vn -0.1018 -0.9861 -0.1313
vn 0.0002 0.7843 0.6204
vn -0.0012 0.9166 0.3998
vn -0.0208 0.9338 0.3572
vn -0.0543 0.8258 0.5613
vn -0.2084 0.9275 0.3103
vn -0.4257 0.6373 0.6423
vn -0.1037 0.9845 0.1414
vn -0.1536 0.9804 -0.1235
vn -0.0000 0.9137 -0.4064
vn 0.0000 0.8159 -0.5781
vn -0.1023 0.9355 -0.3382
vn -0.1291 0.9861 -0.1045
vn -0.4829 0.5210 0.7038
vn -0.5290 0.0911 0.8437
vn -0.8523 -0.1541 0.4998
vn -0.9454 0.0220 0.3253
vn -0.9838 0.0496 0.1723
vn -0.5986 0.4826 0.6393
vn -0.6000 0.5205 0.6075
vn -0.5983 0.4764 0.6443
vn -0.5952 0.4367 0.6746
vn -0.7504 -0.3790 0.5415
vn -0.6895 -0.4292 0.5834
vn -0.7555 -0.3744 0.5376
vn -0.8257 -0.3036 0.4755
vn -1.0000 0.0091 0.0015
vn -0.9999 0.0129 0.0004
vn -0.9999 0.0164 -0.0001
vn -0.7222 0.5885 -0.3634
vn -0.7782 0.5481 -0.3067
vn -0.7054 0.5991 -0.3789
vn -0.6598 0.6246 -0.4177
vn -0.7229 -0.4885 -0.4886
vn -0.7209 -0.4671 -0.5119
vn -0.7232 -0.4926 -0.4840
vn -0.7244 -0.5142 -0.4592
vn -0.9745 -0.1620 -0.1553
vn -0.9454 0.0403 -0.3233
vn -0.9903 0.0202 -0.1372
vn -0.5693 0.5835 -0.5792
vn -0.5441 0.5665 -0.6189
vn -0.8033 -0.2249 -0.5515
vn -0.7296 -0.1937 -0.6559
vn -0.9295 -0.1094 -0.3523
vn -0.7862 0.0638 -0.6146
vn -0.9456 0.0353 -0.3234
vn -0.2699 0.8980 0.3474
vn -0.2388 0.4701 -0.8497
vn -0.2541 0.5154 -0.8184
vn -0.3904 -0.4336 -0.8121
vn -0.3789 -0.4405 -0.8139
vn -0.2705 -0.4257 -0.8635
vn -0.2398 -0.4100 -0.8800
vn -0.4356 -0.8101 -0.3925
vn -0.4780 -0.8668 -0.1420
vn -0.3148 -0.9338 -0.1699
vn -0.2734 -0.8735 -0.4028
vn -0.4787 -0.8724 0.0986
vn -0.3212 -0.9419 0.0985
vn -0.2558 0.0693 0.9642
vn -0.3047 -0.3473 0.8869
vn -0.2977 0.4822 0.8239
vn -0.0549 0.9869 0.1514
vn -0.0456 0.9547 0.2940
vn -0.0213 0.9524 0.3041
vn -0.0306 0.9847 0.1714
vn -0.0434 0.9988 0.0241
vn -0.0630 0.9980 -0.0006
vn -0.0225 0.3867 -0.9219
vn -0.0501 0.3813 -0.9231
vn -0.0476 0.3836 -0.9223
vn -0.0167 0.3895 -0.9209
vn -0.0442 -0.3193 -0.9466
vn -0.0463 -0.3163 -0.9475
vn -0.0187 -0.3320 -0.9431
vn -0.0138 -0.3387 -0.9408
vn -0.0614 -0.9874 -0.1457
vn -0.0562 -0.9520 -0.3008
vn -0.0260 -0.9419 -0.3348
vn -0.0287 -0.9872 -0.1570
vn -0.0663 -0.9976 0.0215
vn -0.0289 -0.9987 0.0414
vn -0.0201 0.0275 0.9994
vn -0.0490 0.0267 0.9984
vn -0.0449 -0.2708 0.9616
vn -0.0172 -0.2828 0.9590
vn -0.0436 0.3233 0.9453
vn -0.0107 0.3384 0.9409
vn -0.0522 0.9460 0.3200
vn -0.0654 0.9780 0.1983
vn -0.0636 0.9961 0.0609
vn -0.0546 0.3956 -0.9168
vn -0.0609 0.4035 -0.9130
vn -0.0590 -0.3403 -0.9385
vn -0.0452 -0.3530 -0.9345
vn -0.0499 -0.9325 -0.3578
vn -0.0684 -0.9844 -0.1620
vn -0.0689 -0.9958 0.0598
vn -0.0574 0.0374 0.9976
vn -0.0504 -0.2870 0.9566
vn -0.0529 0.3601 0.9314
vn -0.0825 0.9902 0.1127
vn -0.0731 0.8554 0.5127
vn -0.0824 0.9714 -0.2227
vn -0.0579 0.3777 -0.9241
vn -0.0579 0.3781 -0.9240
vn -0.0496 -0.3384 -0.9397
vn -0.0492 -0.3413 -0.9387
vn -0.0711 -0.9923 -0.1014
vn -0.0684 -0.9603 -0.2705
vn -0.0716 -0.9902 0.1200
vn -0.0583 -0.0201 0.9981
vn -0.0542 -0.2340 0.9707
vn -0.0586 0.2524 0.9658
vn 0.0295 -0.9959 -0.0852
vn 0.0256 -0.9967 -0.0774
vn 0.0291 -0.9970 -0.0719
vn 0.0259 -0.9971 -0.0715
vn 0.0045 -0.9981 0.0622
vn 0.0071 -0.9989 0.0456
vn -0.1630 -0.8193 0.5498
vn -0.1618 -0.8176 0.5526
vn -0.8497 -0.2122 0.4826
vn -0.8559 -0.0889 0.5094
vn -0.7268 -0.5995 0.3350
vn -0.6818 -0.6698 0.2943
vn -0.8694 -0.2066 -0.4488
vn -0.7505 -0.6222 -0.2226
vn -0.8874 -0.2065 -0.4121
vn -0.8733 0.0291 -0.4864
vn -0.0547 -0.8814 -0.4693
vn 0.2891 -0.0080 -0.9573
vn 0.6018 -0.7327 -0.3179
vn -0.2323 -0.8836 -0.4066
vn -0.0000 -0.9092 -0.4164
vn 0.0000 -0.9224 -0.3863
vn -0.2387 0.0569 0.9694
vn -0.3212 0.0812 0.9435
vn -0.3093 0.0779 0.9478
vn -0.2231 0.0589 0.9730
vn -0.8782 0.1359 0.4587
vn -0.8734 0.1381 0.4670
vn -0.8817 0.1667 -0.4414
vn -0.8909 0.1483 -0.4293
vn 0.1103 0.0565 -0.9923
vn 0.0805 0.0360 -0.9961
vn 0.2587 0.0010 -0.9660
vn 0.2888 0.0045 -0.9574
vn 0.8709 -0.0974 -0.4816
vn 0.8861 -0.0694 -0.4582
vn 0.8808 -0.0356 -0.4721
vn 0.8692 -0.0963 -0.4849
vn 0.9149 -0.0890 0.3938
vn 0.9151 -0.0721 0.3967
vn 0.9161 -0.1191 0.3828
vn 0.9181 -0.1220 0.3772
vn -0.3661 0.0111 0.9305
vn -0.4334 0.0195 0.9010
vn -0.4242 0.0202 0.9054
vn -0.3545 0.0171 0.9349
vn -0.9156 0.0594 0.3977
vn -0.9029 0.0944 0.4193
vn -0.9035 0.0943 0.4180
vn -0.9082 0.0829 0.4102
vn -0.8968 0.0919 -0.4328
vn -0.8969 0.0919 -0.4326
vn -0.8964 0.0639 -0.4386
vn -0.8983 0.0460 -0.4371
vn -0.1361 -0.0146 -0.9906
vn -0.1591 -0.0158 -0.9871
vn 0.0356 -0.0667 -0.9971
vn 0.0561 -0.0535 -0.9970
vn 0.8702 -0.1816 -0.4581
vn 0.8880 -0.1267 -0.4421
vn 0.8871 -0.1262 -0.4440
vn 0.8703 -0.1643 -0.4643
vn 0.8905 -0.1274 0.4367
vn 0.8872 -0.1250 0.4442
vn 0.9053 -0.2057 0.3715
vn 0.9051 -0.1475 0.3987
vn -0.3413 0.0519 0.9385
vn -0.3304 0.0662 0.9415
vn -0.8956 0.0941 -0.4347
vn -0.8937 0.1035 -0.4366
vn 0.0575 -0.0363 -0.9977
vn 0.0791 0.0227 -0.9966
vn 0.8774 -0.1429 -0.4580
vn 0.8778 -0.0957 -0.4694
vn 0.9127 -0.1298 0.3875
vn 0.9113 -0.0935 0.4011
vn -0.1018 -0.9943 0.0317
vn 0.0916 -0.9867 0.1346
vn 0.2465 -0.9528 0.1774
vn -0.0906 -0.9937 0.0668
vn 0.0100 -0.9948 0.1012
vn 0.0668 -0.9933 0.0943
vn 0.0478 -0.9987 -0.0201
vn 0.0474 -0.9976 -0.0500
vn -0.0062 -0.9999 -0.0153
vn -0.0283 -0.9993 -0.0240
vn -0.0378 -0.9962 0.0784
vn -0.0069 -0.9898 0.1426
vn -0.1106 0.9807 0.1613
vn -0.1503 0.9800 0.1307
vn -0.0711 0.9818 0.1762
vn -0.0536 0.9808 0.1873
vn 0.7789 0.5998 -0.1830
vn 0.1924 0.9780 0.0801
vn 0.5985 0.8010 -0.0119
vn 0.8362 0.5046 -0.2148
vn 0.7952 0.5465 -0.2628
vn 0.7967 0.5263 -0.2972
vn -0.1540 0.5579 -0.8155
vn -0.1451 0.5669 -0.8109
vn -0.1531 0.5588 -0.8150
vn -0.1663 0.5453 -0.8216
vn -0.7195 0.5822 -0.3786
vn -0.7052 0.6771 -0.2101
vn -0.8536 0.5148 0.0791
vn -0.8010 0.5036 -0.3237
vn -0.6173 0.7845 -0.0592
vn -0.6877 0.7245 0.0459
vn -0.0433 0.9823 0.1822
vn -0.0267 0.9802 0.1963
vn -0.9634 0.0290 0.2665
vn -0.9612 0.0451 0.2721
vn 0.0080 -0.9853 0.1705
vn 0.0273 -0.9875 0.1554
vn 0.9622 0.0179 0.2717
vn 0.9627 0.0229 0.2697
vn -0.6132 0.0745 -0.7864
vn -0.7782 0.0568 -0.6255
vn -0.7731 0.0605 -0.6313
vn -0.6084 0.0490 -0.7921
vn -0.8390 -0.0127 0.5440
vn -0.8518 0.0000 0.5239
vn -0.8075 -0.0418 0.5884
vn -0.7919 -0.0552 0.6081
vn 0.0000 0.6558 -0.7549
vn 0.0000 0.6246 -0.7809
vn -0.4441 0.6061 -0.6598
vn -0.4654 0.6290 -0.6227
vn -0.9046 0.3357 -0.2626
vn -0.9587 0.1791 -0.2209
vn -0.9445 0.0573 -0.3234
vn -0.9058 0.2566 -0.3371
vn -0.8904 0.1142 0.4406
vn -0.6511 0.2249 0.7249
vn -0.0003 0.9999 0.0113
vn 0.0553 0.9914 0.1185
vn -0.2241 0.9710 -0.0829
vn 0.0000 0.9547 -0.2974
vn -0.0763 0.9703 0.2296
vn 0.0000 -0.9998 -0.0180
vn -0.2498 -0.9682 -0.0136
vn -0.3888 -0.9205 -0.0399
vn 0.0000 -0.9981 -0.0616
vn -0.3026 -0.9139 -0.2706
vn -0.4414 -0.7978 -0.4106
vn 0.0250 -0.9632 -0.2676
vn 0.0839 -0.9848 -0.1519
vn 0.0000 -0.9611 -0.2761
vn 0.0000 -0.9488 -0.3157
vn 0.0067 -0.1175 0.9931
vn 0.0277 0.0210 0.9994
vn -0.6848 0.0612 0.7262
vn -0.4847 0.3936 0.7811
vn -0.8660 -0.2860 -0.4103
vn -0.8420 -0.3798 -0.3832
vn -0.9058 -0.1098 -0.4092
vn -0.9027 -0.0255 -0.4295
vn -0.8695 -0.3567 0.3416
vn -0.7628 -0.1709 0.6237
vn -0.9321 -0.0940 0.3499
vn -0.9174 0.0087 -0.3979
vn -0.9064 0.0790 -0.4149
vn -0.9406 -0.0141 0.3392
vn -0.7861 -0.0059 0.6181
vn -0.7660 0.0067 0.6428
vn 0.0014 -0.0036 1.0000
vn 0.0000 -0.6312 -0.7756
vn -0.3156 -0.5020 -0.8052
vn -0.3772 -0.4912 -0.7851
vn 0.0000 -0.4588 -0.8885
vn -0.7640 -0.5239 -0.3766
vn -0.7638 -0.5254 -0.3750
vn -0.8273 -0.4545 0.3302
vn -0.5927 -0.3165 0.7406
vn -0.6105 -0.3922 0.6881
vn -0.4999 0.2900 0.8161
vn -0.7803 -0.0890 0.6190
vn -0.5058 0.1462 0.8502
vn -0.4788 0.1421 0.8664
vn -0.6659 0.0630 0.7434
vn -0.7095 0.1584 0.6866
vn -0.8592 0.1183 0.4978
vn -0.3327 0.7878 0.5184
vn -0.1468 0.7586 0.6348
vn -0.8354 -0.0633 0.5459
vn -0.8359 0.0954 0.5406
vn -0.6462 -0.0716 0.7598
vn -0.4341 -0.0277 0.9004
vn -0.4944 -0.2293 0.8384
vn -0.4777 -0.7163 0.5087
vn -0.4565 0.0174 0.8896
vn -0.6845 -0.6007 0.4130
vn -0.8073 0.2257 0.5452
vn -0.3871 0.2204 0.8953
vn -0.6229 0.6988 -0.3517
vn -0.6166 0.7082 -0.3439
vn -0.8161 -0.3196 -0.4816
vn -0.8679 -0.1863 -0.4605
vn -0.5005 -0.8302 -0.2454
vn -0.1626 -0.9830 -0.0856
vn -0.1770 -0.9793 -0.0987
vn -0.3961 -0.8877 -0.2349
vn 0.1095 -0.9934 0.0350
vn 0.0431 -0.9988 0.0212
vn 0.8170 -0.4357 0.3778
vn 0.8902 -0.2385 0.3881
vn 0.8779 -0.2747 0.3922
vn 0.8880 -0.2744 0.3691
vn 0.9288 0.0521 0.3669
vn 0.8878 -0.2151 0.4069
vn 0.3960 0.8965 0.1985
vn 0.2778 0.9498 0.1435
vn 0.2247 0.9693 0.1003
vn 0.2884 0.9513 0.1091
vn 0.0491 0.9986 0.0179
vn 0.0942 0.9937 0.0599
vn -0.6135 0.5598 0.5569
vn -0.6399 0.7334 0.2293
vn -0.6605 0.7219 0.2062
vn -0.6629 0.4598 0.5909
vn -0.7102 0.6563 -0.2549
vn -0.7250 0.6345 -0.2679
vn -0.5815 0.4390 -0.6849
vn -0.6271 0.4706 -0.6207
vn -0.5986 -0.3015 -0.7421
vn -0.7121 -0.5114 -0.4810
vn -0.7061 -0.4930 -0.5084
vn -0.5607 -0.3322 -0.7585
vn -0.6540 -0.7299 -0.1991
vn -0.6701 -0.7117 -0.2109
vn -0.7403 -0.5817 0.3370
vn -0.6037 -0.6683 0.4346
vn -0.5721 -0.1436 0.8075
vn -0.6101 -0.1611 0.7758
vn -0.6332 0.3323 0.6990
vn -0.5143 0.3981 0.7596
vn 0.6098 0.7501 0.2560
vn 0.6130 0.7493 0.2504
vn 0.5386 -0.0212 0.8423
vn 0.4950 -0.0322 0.8683
vn 0.4874 -0.2274 0.8431
vn 0.5420 -0.1578 0.8254
vn 0.5242 -0.8486 -0.0715
vn 0.4241 -0.8956 -0.1343
vn 0.4508 -0.8680 -0.2081
vn 0.5231 -0.8474 -0.0908
vn 0.4355 -0.2149 -0.8742
vn 0.4485 -0.2211 -0.8660
vn 0.4678 0.0859 -0.8796
vn 0.4543 0.1131 -0.8836
vn 0.6070 0.7502 -0.2624
vn 0.5841 0.7748 -0.2419
vn -0.0000 -0.9125 0.4090
vn 0.0461 -0.9113 0.4092
vn 0.6790 -0.6747 0.2895
vn 0.0000 -0.9220 0.3873
vn 0.0000 0.0805 -0.9968
vn 0.0000 0.0269 -0.9996
vn -0.4455 -0.2567 -0.8577
vn -0.0000 -0.1045 -0.9945
vn -0.4406 0.0067 -0.8977
vn -0.4451 0.1014 -0.8897
vn 0.0000 0.0677 -0.9977
vn -0.0000 0.0489 -0.9988
vn 0.2332 0.1009 0.9672
vn 0.3588 0.0771 0.9302
vn 0.4211 -0.0190 0.9068
vn 0.3068 0.0728 0.9490
vn 0.2099 0.9682 0.1364
vn 0.2089 0.9519 0.2241
vn 0.1903 0.9732 0.1289
vn 0.1848 0.9823 0.0294
vn 0.0022 0.9763 0.2166
vn 0.0023 0.8363 0.5482
vn 0.0021 0.8362 0.5484
vn 0.0014 0.9954 0.0960
vn 0.0018 0.9630 -0.2697
vn 0.0030 0.9633 -0.2683
vn 0.0033 0.3615 -0.9324
vn 0.0028 0.3617 -0.9323
vn 0.0032 0.3616 -0.9323
vn 0.0037 0.3614 -0.9324
vn 0.0032 -0.3441 -0.9389
vn 0.0017 -0.3451 -0.9386
vn 0.0038 -0.3438 -0.9391
vn 0.0055 -0.3427 -0.9394
vn 0.0006 -0.9983 -0.0575
vn 0.0118 -0.9767 -0.2142
vn 0.0008 -0.9748 -0.2233
vn -0.0098 -0.9957 -0.0924
vn -0.0014 -0.9971 0.0760
vn 0.0083 -0.9976 0.0688
vn 0.0006 0.0224 0.9997
vn 0.0047 -0.1977 0.9802
vn 0.0004 -0.2024 0.9793
vn -0.0032 -0.0318 0.9995
vn 0.0002 0.1971 0.9804
vn 0.0031 0.1952 0.9808
vn 0.9001 0.1515 0.4085
vn 0.8980 0.1459 0.4151
vn 0.9006 0.1347 0.4133
vn 0.9070 0.1071 0.4072
vn 0.4337 -0.0000 0.9011
vn 0.8961 -0.0000 0.4439
vn 0.8985 -0.0000 -0.4390
vn 0.8985 0.0000 -0.4390
vn 0.1596 -0.0000 -0.9872
vn -0.8974 -0.0000 -0.4412
vn -0.8974 0.0000 -0.4412
vn -0.9017 -0.0000 0.4324
vn 0.9766 0.0000 -0.2149
vn 0.9758 -0.0013 -0.2186
vn 0.8897 0.0000 -0.4565
vn 0.1433 0.0000 -0.9897
vn -0.9476 -0.0000 -0.3194
vn -0.9837 -0.0000 -0.1801
vn -0.9836 0.0010 -0.1805
vn 0.2043 0.0000 0.9789
vn 0.0451 0.9794 0.1967
vn 0.0151 0.8420 0.5393
vn 0.0713 0.8813 0.4672
vn 0.1000 0.9865 0.1294
vn 0.0751 0.9819 -0.1740
vn 0.0182 0.9626 -0.2703
vn 0.0521 0.3176 -0.9468
vn 0.0176 0.3503 -0.9365
vn 0.0743 0.2961 -0.9523
vn 0.1080 0.2628 -0.9588
vn 0.0760 -0.2950 -0.9525
vn 0.0238 -0.3464 -0.9378
vn 0.0600 -0.3109 -0.9485
vn 0.1092 -0.2612 -0.9591
vn 0.0656 -0.9962 -0.0565
vn 0.0371 -0.9416 -0.3346
vn 0.0923 -0.9592 -0.2674
vn 0.1238 -0.9877 -0.0959
vn 0.0998 -0.9901 0.0986
vn 0.0330 -0.9797 0.1976
vn 0.0452 0.0233 0.9987
vn 0.0237 -0.2397 0.9706
vn 0.0725 -0.1591 0.9846
vn 0.0903 0.0012 0.9959
vn 0.0629 0.1773 0.9821
vn 0.0172 0.2307 0.9729
vn 0.5464 0.5629 0.6202
vn 0.6881 0.4388 0.5779
vn 0.3848 0.9220 -0.0424
vn 0.3616 0.9299 -0.0673
vn 0.5870 -0.1924 0.7864
vn 0.7574 -0.3723 0.5364
vn 0.0194 -0.0001 0.9998
vn 0.0193 -0.0005 0.9998
vn 0.0197 0.0006 0.9998
vn 0.0199 0.0009 0.9998
vn 0.9912 -0.0050 0.1322
vn 0.9915 -0.0097 0.1296
vn -0.9940 0.0089 0.1090
vn -0.9936 0.0084 0.1123
vn 0.1324 -0.9461 0.2957
vn 0.2356 -0.9145 0.3288
vn 0.3325 -0.9242 0.1879
vn 0.6969 -0.7164 -0.0326
vn 0.6980 -0.7112 -0.0830
vn 0.3235 -0.7590 -0.5651
vn 0.3989 -0.9010 -0.1708
vn 0.0756 -0.9381 -0.3380
vn 0.7686 0.1070 0.6307
vn 0.7601 0.0687 0.6462
vn 0.7805 -0.0371 0.6241
vn 0.5980 0.0700 0.7984
vn 0.5282 0.4455 0.7228
vn 0.2574 0.3676 0.8937
vn 0.3046 0.0811 -0.9490
vn 0.1385 0.0701 -0.9879
vn 0.2484 0.0206 -0.9684
vn 0.4652 0.0261 -0.8848
vn 0.2045 -0.1367 -0.9693
vn 0.3889 -0.1419 -0.9103
vn 0.2343 -0.1740 -0.9565
vn 0.4245 -0.1612 -0.8910
vn 0.5336 0.6181 -0.5773
vn 0.1937 0.6433 -0.7407
vn 0.2150 0.6439 -0.7343
vn 0.5545 0.6014 -0.5751
vn 0.2797 -0.9214 0.2699
vn 0.1018 -0.9861 -0.1313
vn 0.0543 0.8258 0.5613
vn 0.0205 0.9337 0.3574
vn 0.4257 0.6373 0.6423
vn 0.2084 0.9275 0.3103
vn 0.1037 0.9845 0.1414
vn 0.1536 0.9804 -0.1235
vn 0.1023 0.9355 -0.3382
vn 0.1291 0.9861 -0.1045
vn 0.5290 0.0911 0.8437
vn 0.4829 0.5210 0.7038
vn 0.8523 -0.1541 0.4998
vn 0.9454 0.0220 0.3253
vn 0.9838 0.0496 0.1723
vn 0.5986 0.4826 0.6393
vn 0.5952 0.4367 0.6746
vn 0.5983 0.4764 0.6443
vn 0.6000 0.5205 0.6075
vn 0.7504 -0.3790 0.5415
vn 0.8257 -0.3036 0.4755
vn 0.7555 -0.3744 0.5376
vn 0.6895 -0.4292 0.5834
vn 0.9999 0.0129 0.0004
vn 1.0000 0.0091 0.0015
vn 0.9999 0.0164 -0.0001
vn 0.7222 0.5885 -0.3634
vn 0.6598 0.6246 -0.4177
vn 0.7054 0.5991 -0.3789
vn 0.7782 0.5481 -0.3067
vn 0.7229 -0.4885 -0.4886
vn 0.7244 -0.5142 -0.4592
vn 0.7232 -0.4926 -0.4840
vn 0.7209 -0.4671 -0.5119
vn 0.9454 0.0403 -0.3233
vn 0.9745 -0.1620 -0.1553
vn 0.9903 0.0202 -0.1372
vn 0.5693 0.5835 -0.5792
vn 0.5441 0.5665 -0.6189
vn 0.8033 -0.2249 -0.5515
vn 0.9295 -0.1094 -0.3523
vn 0.7296 -0.1937 -0.6559
vn 0.7862 0.0638 -0.6146
vn 0.9456 0.0353 -0.3234
vn 0.2699 0.8980 0.3474
vn 0.2541 0.5154 -0.8184
vn 0.2388 0.4701 -0.8497
vn 0.3904 -0.4336 -0.8121
vn 0.2398 -0.4100 -0.8800
vn 0.2705 -0.4257 -0.8635
vn 0.3789 -0.4405 -0.8139
vn 0.4356 -0.8101 -0.3925
vn 0.2734 -0.8735 -0.4028
vn 0.3148 -0.9338 -0.1699
vn 0.4780 -0.8668 -0.1420
vn 0.3212 -0.9419 0.0985
vn 0.4787 -0.8724 0.0986
vn 0.3047 -0.3473 0.8869
vn 0.2558 0.0693 0.9642
vn 0.2977 0.4822 0.8239
vn 0.0549 0.9869 0.1514
vn 0.0306 0.9847 0.1714
vn 0.0213 0.9524 0.3041
vn 0.0456 0.9547 0.2940
vn 0.0434 0.9988 0.0241
vn 0.0630 0.9980 -0.0006
vn 0.0225 0.3867 -0.9219
vn 0.0167 0.3895 -0.9209
vn 0.0476 0.3836 -0.9223
vn 0.0501 0.3813 -0.9231
vn 0.0442 -0.3193 -0.9466
vn 0.0138 -0.3387 -0.9408
vn 0.0187 -0.3320 -0.9431
vn 0.0463 -0.3163 -0.9475
vn 0.0614 -0.9874 -0.1457
vn 0.0287 -0.9872 -0.1570
vn 0.0260 -0.9419 -0.3348
vn 0.0562 -0.9520 -0.3008
vn 0.0663 -0.9976 0.0215
vn 0.0289 -0.9987 0.0414
vn 0.0201 0.0275 0.9994
vn 0.0172 -0.2828 0.9590
vn 0.0449 -0.2708 0.9616
vn 0.0490 0.0267 0.9984
vn 0.0436 0.3233 0.9453
vn 0.0107 0.3384 0.9409
vn 0.0654 0.9780 0.1983
vn 0.0522 0.9460 0.3200
vn 0.0636 0.9961 0.0609
vn 0.0546 0.3956 -0.9168
vn 0.0609 0.4035 -0.9130
vn 0.0452 -0.3530 -0.9345
vn 0.0590 -0.3403 -0.9385
vn 0.0684 -0.9844 -0.1620
vn 0.0499 -0.9325 -0.3578
vn 0.0689 -0.9958 0.0598
vn 0.0574 0.0374 0.9976
vn 0.0504 -0.2870 0.9566
vn 0.0529 0.3601 0.9314
vn 0.0825 0.9902 0.1127
vn 0.0731 0.8554 0.5127
vn 0.0824 0.9714 -0.2227
vn 0.0579 0.3781 -0.9240
vn 0.0579 0.3777 -0.9241
vn 0.0496 -0.3384 -0.9397
vn 0.0492 -0.3413 -0.9387
vn 0.0711 -0.9923 -0.1014
vn 0.0684 -0.9603 -0.2705
vn 0.0716 -0.9902 0.1200
vn 0.0542 -0.2340 0.9707
vn 0.0583 -0.0201 0.9981
vn 0.0586 0.2524 0.9658
vn -0.0295 -0.9959 -0.0852
vn -0.0259 -0.9971 -0.0715
vn -0.0291 -0.9970 -0.0719
vn -0.0256 -0.9967 -0.0774
vn -0.0071 -0.9989 0.0456
vn -0.0045 -0.9981 0.0622
vn 0.1618 -0.8176 0.5526
vn 0.1630 -0.8193 0.5498
vn 0.8497 -0.2122 0.4826
vn 0.6818 -0.6698 0.2943
vn 0.7268 -0.5995 0.3350
vn 0.8559 -0.0889 0.5094
vn 0.8694 -0.2066 -0.4488
vn 0.8733 0.0291 -0.4864
vn 0.8874 -0.2065 -0.4121
vn 0.7505 -0.6222 -0.2226
vn -0.2891 -0.0080 -0.9573
vn 0.0547 -0.8814 -0.4693
vn -0.6018 -0.7327 -0.3179
vn 0.2323 -0.8836 -0.4066
vn 0.2387 0.0569 0.9694
vn 0.2231 0.0589 0.9730
vn 0.3093 0.0779 0.9478
vn 0.3212 0.0812 0.9435
vn 0.8782 0.1359 0.4587
vn 0.8734 0.1381 0.4670
vn 0.8817 0.1667 -0.4414
vn 0.8909 0.1483 -0.4293
vn -0.1103 0.0565 -0.9923
vn -0.2888 0.0045 -0.9574
vn -0.2587 0.0010 -0.9660
vn -0.0805 0.0360 -0.9961
vn -0.8709 -0.0974 -0.4816
vn -0.8692 -0.0963 -0.4849
vn -0.8808 -0.0356 -0.4721
vn -0.8861 -0.0694 -0.4582
vn -0.9149 -0.0890 0.3938
vn -0.9181 -0.1220 0.3772
vn -0.9161 -0.1191 0.3828
vn -0.9151 -0.0721 0.3967
vn 0.3661 0.0111 0.9305
vn 0.3545 0.0171 0.9349
vn 0.4242 0.0202 0.9054
vn 0.4334 0.0195 0.9010
vn 0.9156 0.0594 0.3977
vn 0.9082 0.0829 0.4102
vn 0.9035 0.0943 0.4180
vn 0.9029 0.0944 0.4193
vn 0.8968 0.0919 -0.4328
vn 0.8983 0.0460 -0.4371
vn 0.8964 0.0639 -0.4386
vn 0.8969 0.0919 -0.4326
vn 0.1361 -0.0146 -0.9906
vn -0.0561 -0.0535 -0.9970
vn -0.0356 -0.0667 -0.9971
vn 0.1591 -0.0158 -0.9871
vn -0.8702 -0.1816 -0.4581
vn -0.8703 -0.1643 -0.4643
vn -0.8871 -0.1262 -0.4440
vn -0.8880 -0.1267 -0.4421
vn -0.8905 -0.1274 0.4367
vn -0.9051 -0.1475 0.3987
vn -0.9053 -0.2057 0.3715
vn -0.8872 -0.1250 0.4442
vn 0.3413 0.0519 0.9385
vn 0.3304 0.0662 0.9415
vn 0.8937 0.1035 -0.4366
vn 0.8956 0.0941 -0.4347
vn -0.0791 0.0227 -0.9966
vn -0.0575 -0.0363 -0.9977
vn -0.8774 -0.1429 -0.4580
vn -0.8778 -0.0957 -0.4694
vn -0.9113 -0.0935 0.4011
vn -0.9127 -0.1298 0.3875
vn 0.1018 -0.9943 0.0317
vn 0.0906 -0.9937 0.0668
vn -0.2465 -0.9528 0.1774
vn -0.0916 -0.9867 0.1346
vn -0.0668 -0.9933 0.0943
vn -0.0100 -0.9948 0.1012
vn -0.0474 -0.9976 -0.0500
vn -0.0478 -0.9987 -0.0201
vn 0.0283 -0.9993 -0.0240
vn 0.0062 -0.9999 -0.0153
vn 0.0069 -0.9898 0.1426
vn 0.0378 -0.9962 0.0784
vn 0.1106 0.9807 0.1613
vn 0.0536 0.9808 0.1873
vn 0.0711 0.9818 0.1762
vn 0.1503 0.9800 0.1307
vn -0.7789 0.5998 -0.1830
vn -0.8362 0.5046 -0.2148
vn -0.5985 0.8010 -0.0119
vn -0.1924 0.9780 0.0801
vn -0.7967 0.5263 -0.2972
vn -0.7952 0.5465 -0.2628
vn 0.1540 0.5579 -0.8155
vn 0.1663 0.5453 -0.8216
vn 0.1531 0.5588 -0.8150
vn 0.1451 0.5669 -0.8109
vn 0.7195 0.5822 -0.3786
vn 0.8010 0.5036 -0.3237
vn 0.8536 0.5148 0.0791
vn 0.7052 0.6771 -0.2101
vn 0.6877 0.7245 0.0459
vn 0.6173 0.7845 -0.0592
vn 0.0267 0.9802 0.1963
vn 0.0433 0.9823 0.1822
vn 0.9612 0.0451 0.2721
vn 0.9634 0.0290 0.2665
vn -0.0273 -0.9875 0.1554
vn -0.0080 -0.9853 0.1705
vn -0.9627 0.0229 0.2697
vn -0.9622 0.0179 0.2717
vn 0.6132 0.0745 -0.7864
vn 0.6084 0.0490 -0.7921
vn 0.7731 0.0605 -0.6313
vn 0.7782 0.0568 -0.6255
vn 0.8390 -0.0127 0.5440
vn 0.7919 -0.0552 0.6081
vn 0.8075 -0.0418 0.5884
vn 0.8518 0.0000 0.5239
vn 0.4441 0.6061 -0.6598
vn 0.4654 0.6290 -0.6227
vn 0.9052 0.3345 -0.2623
vn 0.9066 0.2549 -0.3363
vn 0.9449 0.0566 -0.3225
vn 0.9587 0.1791 -0.2209
vn 0.6188 0.3289 0.7134
vn 0.8967 0.1370 0.4209
vn -0.0553 0.9914 0.1185
vn 0.2241 0.9710 -0.0829
vn 0.0763 0.9703 0.2296
vn 0.3888 -0.9205 -0.0399
vn 0.2498 -0.9682 -0.0136
vn 0.4414 -0.7978 -0.4106
vn 0.3026 -0.9139 -0.2706
vn -0.0250 -0.9632 -0.2676
vn -0.0839 -0.9848 -0.1519
vn 0.4360 0.4478 0.7806
vn 0.7127 0.0632 0.6986
vn 0.8666 -0.2849 -0.4096
vn 0.9036 -0.0248 -0.4277
vn 0.9066 -0.1077 -0.4081
vn 0.8428 -0.3780 -0.3832
vn 0.8689 -0.3586 0.3412
vn 0.9384 -0.1094 0.3279
vn 0.7586 -0.2303 0.6094
vn 0.9181 0.0085 -0.3963
vn 0.9072 0.0789 -0.4133
vn 0.7205 0.0553 0.6913
vn 0.7583 -0.0116 0.6518
vn 0.9533 -0.0099 0.3020
vn 0.3772 -0.4912 -0.7851
vn 0.3156 -0.5020 -0.8052
vn 0.7640 -0.5239 -0.3766
vn 0.7638 -0.5254 -0.3750
vn 0.8273 -0.4545 0.3302
vn 0.5731 -0.5013 0.6483
vn 0.5319 -0.2502 0.8090
vn 0.7273 -0.1345 0.6730
vn 0.4009 0.1650 0.9011
vn 0.5058 0.1462 0.8502
vn 0.7095 0.1584 0.6866
vn 0.6659 0.0630 0.7434
vn 0.4788 0.1421 0.8664
vn 0.3093 0.8043 0.5074
vn 0.8614 0.1292 0.4911
vn -0.0179 0.7764 0.6300
vn 0.8354 -0.0633 0.5459
vn 0.6462 -0.0716 0.7598
vn 0.8359 0.0954 0.5406
vn 0.1966 -0.0771 0.9775
vn 0.2684 -0.0536 0.9618
vn 0.3505 -0.7578 0.5504
vn 0.4565 0.0174 0.8896
vn 0.6455 -0.6521 0.3976
vn 0.8073 0.2257 0.5452
vn 0.1700 0.1599 0.9724
vn 0.7182 0.6959 0.0037
vn 0.7439 0.6682 -0.0101
vn 0.9937 -0.1099 0.0208
vn 0.9502 -0.3069 -0.0535
vn 0.4070 -0.9120 -0.0499
vn 0.4708 -0.8819 -0.0256
vn 0.0851 -0.9957 -0.0376
vn 0.1478 -0.9881 -0.0429
vn -0.0922 -0.9951 -0.0356
vn -0.0474 -0.9984 -0.0298
vn -0.8878 -0.4547 0.0710
vn -0.9886 -0.1496 0.0170
vn -0.9680 -0.2439 0.0591
vn -0.9550 -0.2902 0.0608
vn -0.9674 -0.2410 0.0774
vn -0.9995 0.0179 0.0268
vn -0.5254 0.8504 0.0281
vn -0.4385 0.8988 0.0019
vn -0.3637 0.9315 0.0085
vn -0.3274 0.9448 0.0132
vn -0.1193 0.9928 0.0118
vn -0.0340 0.9992 -0.0197
vn 0.6135 0.5598 0.5569
vn 0.6629 0.4598 0.5909
vn 0.6605 0.7219 0.2062
vn 0.6399 0.7334 0.2293
vn 0.7250 0.6345 -0.2679
vn 0.7102 0.6563 -0.2549
vn 0.6271 0.4706 -0.6207
vn 0.5815 0.4390 -0.6849
vn 0.5986 -0.3015 -0.7421
vn 0.5607 -0.3322 -0.7585
vn 0.7061 -0.4930 -0.5084
vn 0.7121 -0.5114 -0.4810
vn 0.6701 -0.7117 -0.2109
vn 0.6540 -0.7299 -0.1991
vn 0.6037 -0.6683 0.4346
vn 0.7403 -0.5817 0.3370
vn 0.6101 -0.1611 0.7758
vn 0.5721 -0.1436 0.8075
vn 0.5143 0.3981 0.7596
vn 0.6332 0.3323 0.6990
vn -0.6130 0.7493 0.2504
vn -0.6098 0.7501 0.2560
vn -0.4950 -0.0322 0.8683
vn -0.5386 -0.0212 0.8423
vn -0.5420 -0.1578 0.8254
vn -0.4874 -0.2274 0.8431
vn -0.4241 -0.8956 -0.1343
vn -0.5242 -0.8486 -0.0715
vn -0.5231 -0.8474 -0.0908
vn -0.4508 -0.8680 -0.2081
vn -0.4485 -0.2211 -0.8660
vn -0.4355 -0.2149 -0.8742
vn -0.4543 0.1131 -0.8836
vn -0.4678 0.0859 -0.8796
vn -0.5841 0.7748 -0.2419
vn -0.6070 0.7502 -0.2624
vn -0.6790 -0.6747 0.2895
vn -0.0461 -0.9113 0.4092
vn 0.4455 -0.2567 -0.8577
vn 0.4406 0.0067 -0.8977
vn 0.4451 0.1014 -0.8897
# 996 vertex normals

o ANTONIO
g ANTONIO
f 1//1 2//2 3//3 
f 3//3 4//4 1//1 
f 4//4 3//3 5//5 
f 5//5 6//6 4//4 
f 6//6 5//5 7//7 
f 7//7 8//8 6//6 
f 9//9 10//10 11//11 
f 11//11 12//12 9//9 
f 13//13 14//14 15//15 
f 15//15 16//16 13//13 
f 13//13 17//17 18//18 
f 18//18 14//14 13//13 
f 19//19 20//20 18//21 
f 18//21 17//22 19//19 
f 19//23 21//24 22//25 
f 22//25 20//26 19//23 
f 23//27 24//28 22//29 
f 22//29 21//30 23//27 
f 23//27 25//31 26//32 
f 26//32 24//28 23//27 
f 27//33 28//34 26//35 
f 26//35 25//36 27//33 
f 27//33 16//37 15//38 
f 15//38 28//34 27//33 
f 29//39 30//40 31//41 
f 31//41 32//42 29//39 
f 33//43 34//43 35//43 
f 35//43 36//43 33//43 
f 34//44 37//44 38//44 
f 38//44 35//44 34//44 
f 37//45 39//45 40//45 
f 40//45 38//46 37//45 
f 39//47 41//47 42//47 
f 42//47 40//47 39//47 
f 41//48 43//49 44//48 
f 44//48 42//48 41//48 
f 43//50 33//50 36//50 
f 36//50 44//50 43//50 
f 45//51 46//52 47//52 
f 47//52 48//53 45//51 
f 46//54 49//54 50//54 
f 50//54 47//54 46//54 
f 49//55 51//56 52//57 
f 52//57 50//55 49//55 
f 53//58 54//59 55//59 
f 55//59 56//58 53//58 
f 57//60 58//61 59//62 
f 59//62 60//63 57//60 
f 61//64 58//61 57//60 
f 57//60 62//65 61//64 
f 63//66 64//67 61//68 
f 61//68 62//69 63//66 
f 65//70 64//71 63//72 
f 63//72 66//73 65//70 
f 67//74 68//75 65//76 
f 65//76 66//77 67//74 
f 69//78 68//75 67//74 
f 67//74 70//79 69//78 
f 71//80 72//81 69//82 
f 69//82 70//83 71//80 
f 59//84 72//81 71//80 
f 71//80 60//85 59//84 
f 73//86 74//87 75//88 
f 75//88 76//89 73//86 
f 75//90 77//91 78//92 
f 78//92 76//93 75//90 
f 79//94 80//95 81//96 
f 81//96 82//97 79//94 
f 83//98 84//99 85//100 
f 85//100 86//101 83//98 
f 87//102 45//51 48//53 
f 48//53 88//103 87//102 
f 51//56 89//104 90//105 
f 90//105 52//57 51//56 
f 1//106 91//107 92//108 
f 92//108 2//109 1//106 
f 93//110 94//111 95//112 
f 95//112 91//107 93//110 
f 94//111 96//113 97//114 
f 97//114 95//112 94//111 
f 97//114 98//115 99//116 
f 99//116 100//117 97//114 
f 101//118 1//1 4//4 
f 4//4 102//119 101//118 
f 102//119 4//4 6//6 
f 6//6 103//120 102//119 
f 103//120 6//6 8//8 
f 8//8 104//121 103//120 
f 104//121 8//8 105//122 
f 105//122 106//123 104//121 
f 8//8 7//7 107//124 
f 107//124 105//122 8//8 
f 108//125 109//126 110//127 
f 110//127 98//128 108//125 
f 98//128 110//127 111//129 
f 111//129 99//130 98//128 
f 109//126 112//131 113//132 
f 113//132 110//127 109//126 
f 110//127 113//132 114//133 
f 114//133 111//129 110//127 
f 112//131 115//134 116//135 
f 116//135 113//132 112//131 
f 113//132 116//135 117//136 
f 117//136 114//133 113//132 
f 115//137 118//138 119//139 
f 119//139 116//140 115//137 
f 116//140 119//139 120//141 
f 120//141 117//142 116//140 
f 101//143 93//110 91//107 
f 91//107 1//106 101//143 
f 96//113 108//144 98//115 
f 98//115 97//114 96//113 
f 107//145 121//146 122//147 
f 122//147 105//148 107//145 
f 105//148 122//147 123//149 
f 123//149 106//150 105//148 
f 122//147 124//151 9//9 
f 9//9 123//149 122//147 
f 124//151 125//152 10//10 
f 10//10 9//9 124//151 
f 126//153 120//154 119//155 
f 119//155 125//152 126//153 
f 125//152 119//155 118//156 
f 118//156 10//10 125//152 
f 106//123 123//157 127//158 
f 127//158 104//121 106//123 
f 104//121 127//158 128//159 
f 128//159 103//120 104//121 
f 103//120 128//159 129//160 
f 129//160 102//119 103//120 
f 102//119 129//160 93//161 
f 93//161 101//118 102//119 
f 59//162 58//163 130//164 
f 130//164 72//165 59//162 
f 72//166 130//167 68//168 
f 68//168 69//169 72//166 
f 128//159 131//170 132//171 
f 132//171 129//160 128//159 
f 129//160 132//171 94//172 
f 94//172 93//161 129//160 
f 58//173 61//174 64//175 
f 64//175 130//176 58//173 
f 130//177 64//178 65//179 
f 65//179 68//180 130//177 
f 131//170 133//181 134//182 
f 134//182 132//171 131//170 
f 132//171 134//182 96//183 
f 96//183 94//172 132//171 
f 10//184 118//138 115//137 
f 115//137 135//185 10//184 
f 135//186 115//187 112//188 
f 112//188 133//181 135//186 
f 133//181 112//188 109//189 
f 109//189 134//182 133//181 
f 134//182 109//189 108//190 
f 108//190 96//183 134//182 
f 123//149 9//9 12//12 
f 12//12 136//191 123//149 
f 135//185 137//192 11//193 
f 11//193 10//184 135//185 
f 135//194 133//195 138//196 
f 138//196 137//197 135//194 
f 133//198 131//199 139//200 
f 139//200 138//201 133//198 
f 131//199 128//202 140//203 
f 140//203 139//200 131//199 
f 127//158 141//204 140//205 
f 140//205 128//159 127//158 
f 127//158 123//157 136//206 
f 136//206 141//204 127//158 
f 142//207 143//208 144//209 
f 144//209 145//210 142//207 
f 146//211 147//212 142//207 
f 142//207 145//210 146//211 
f 148//213 149//214 147//215 
f 147//215 146//216 148//213 
f 150//217 149//218 148//219 
f 148//219 151//220 150//217 
f 152//221 150//222 151//223 
f 151//223 153//224 152//221 
f 154//225 152//221 153//224 
f 153//224 155//226 154//225 
f 156//227 157//228 154//229 
f 154//229 155//230 156//227 
f 143//231 157//228 156//227 
f 156//227 144//232 143//231 
f 145//210 144//209 158//233 
f 158//233 159//234 145//210 
f 160//235 146//211 145//210 
f 145//210 159//234 160//235 
f 161//236 148//213 146//216 
f 146//216 160//237 161//236 
f 151//220 148//219 161//238 
f 161//238 162//239 151//220 
f 153//224 151//223 162//240 
f 162//240 163//241 153//224 
f 155//226 153//224 163//241 
f 163//241 164//242 155//226 
f 165//243 156//227 155//230 
f 155//230 164//244 165//243 
f 144//232 156//227 165//243 
f 165//243 158//245 144//232 
f 166//246 167//247 143//208 
f 143//208 142//207 166//246 
f 147//212 168//248 166//246 
f 166//246 142//207 147//212 
f 149//214 169//249 168//250 
f 168//250 147//215 149//214 
f 170//251 169//252 149//218 
f 149//218 150//217 170//251 
f 171//253 170//254 150//222 
f 150//222 152//221 171//253 
f 172//255 171//253 152//221 
f 152//221 154//225 172//255 
f 157//228 173//256 172//257 
f 172//257 154//229 157//228 
f 167//258 173//256 157//228 
f 157//228 143//231 167//258 
f 159//234 158//233 136//191 
f 136//191 12//12 159//234 
f 160//235 159//234 12//12 
f 12//12 11//11 160//235 
f 137//192 161//236 160//237 
f 160//237 11//193 137//192 
f 162//239 161//238 137//197 
f 137//197 138//196 162//239 
f 163//241 162//240 138//201 
f 138//201 139//200 163//241 
f 164//242 163//241 139//200 
f 139//200 140//203 164//242 
f 141//204 165//243 164//244 
f 164//244 140//205 141//204 
f 158//245 165//243 141//204 
f 141//204 136//206 158//245 
f 47//259 50//260 52//261 
f 52//261 48//262 47//259 
f 48//262 52//261 90//263 
f 90//263 88//264 48//262 
f 91//107 174//265 175//266 
f 175//266 92//108 91//107 
f 95//267 176//268 174//269 
f 174//269 91//270 95//267 
f 95//271 97//272 177//273 
f 177//273 176//274 95//271 
f 97//114 100//117 178//275 
f 178//275 177//276 97//114 
f 179//277 178//278 100//279 
f 100//279 180//280 179//277 
f 174//281 32//282 181//283 
f 181//283 175//284 174//281 
f 176//285 29//39 32//42 
f 32//42 174//286 176//285 
f 182//287 29//288 176//274 
f 176//274 177//273 182//287 
f 183//289 182//290 177//291 
f 177//291 178//292 183//289 
f 179//293 184//294 183//295 
f 183//295 178//296 179//293 
f 181//297 184//298 179//299 
f 179//299 175//300 181//297 
f 185//301 186//302 187//303 
f 187//303 188//304 185//301 
f 189//305 190//306 186//307 
f 186//307 185//308 189//305 
f 191//309 190//310 189//311 
f 189//311 192//312 191//309 
f 193//313 191//314 192//315 
f 192//315 194//316 193//313 
f 195//317 196//318 193//319 
f 193//319 194//320 195//317 
f 187//321 196//322 195//323 
f 195//323 188//324 187//321 
f 31//325 185//301 188//304 
f 188//304 197//326 31//325 
f 30//40 189//305 185//308 
f 185//308 31//41 30//40 
f 192//312 189//311 30//327 
f 30//327 198//328 192//312 
f 194//316 192//315 198//329 
f 198//329 199//330 194//316 
f 200//331 195//317 194//320 
f 194//320 199//332 200//331 
f 188//324 195//323 200//333 
f 200//333 197//334 188//324 
f 32//282 31//325 197//326 
f 197//326 181//283 32//282 
f 198//328 30//327 29//288 
f 29//288 182//287 198//328 
f 199//330 198//329 182//290 
f 182//290 183//289 199//330 
f 184//294 200//331 199//332 
f 199//332 183//295 184//294 
f 197//334 200//333 184//298 
f 184//298 181//297 197//334 
f 187//335 186//336 34//337 
f 34//337 33//338 187//335 
f 186//336 190//339 37//340 
f 37//340 34//337 186//336 
f 190//339 191//341 39//342 
f 39//342 37//340 190//339 
f 191//341 193//343 41//344 
f 41//344 39//342 191//341 
f 193//343 196//345 43//346 
f 43//346 41//344 193//343 
f 196//345 187//335 33//338 
f 33//338 43//346 196//345 
f 36//347 35//348 87//349 
f 87//349 89//350 36//347 
f 44//351 36//352 89//353 
f 89//353 51//354 44//351 
f 51//354 49//355 42//356 
f 42//356 44//351 51//354 
f 49//357 46//358 40//359 
f 40//359 42//360 49//357 
f 46//361 45//362 38//363 
f 38//363 40//364 46//361 
f 45//362 87//365 35//366 
f 35//366 38//363 45//362 
f 89//350 87//349 84//367 
f 84//367 83//368 89//350 
f 87//102 88//103 85//369 
f 85//369 84//370 87//102 
f 88//264 90//263 86//371 
f 86//371 85//372 88//264 
f 90//105 89//104 83//373 
f 83//373 86//374 90//105 
f 201//375 202//376 203//377 
f 203//377 204//378 201//375 
f 202//379 53//380 56//381 
f 56//381 203//382 202//379 
f 77//383 205//384 206//385 
f 206//385 78//386 77//383 
f 76//387 78//388 206//389 
f 206//389 207//390 76//387 
f 76//89 207//391 208//392 
f 208//392 73//86 76//89 
f 122//147 121//146 54//393 
f 54//393 53//394 122//147 
f 126//153 125//152 201//395 
f 201//395 209//396 126//153 
f 125//152 124//151 202//397 
f 202//397 201//395 125//152 
f 124//151 122//147 53//394 
f 53//394 202//397 124//151 
f 82//398 81//399 56//400 
f 56//400 55//401 82//398 
f 81//399 210//402 203//403 
f 203//403 56//400 81//399 
f 204//404 203//403 210//402 
f 210//402 211//405 204//404 
f 212//406 213//407 204//404 
f 204//404 211//405 212//406 
f 214//408 215//409 216//410 
f 216//410 217//411 214//408 
f 218//412 219//413 220//414 
f 220//414 221//415 218//412 
f 219//416 80//95 222//417 
f 222//417 220//418 219//416 
f 223//419 224//420 207//390 
f 207//390 206//389 223//419 
f 207//391 224//421 225//422 
f 225//422 226//423 207//391 
f 74//87 73//86 208//392 
f 208//392 227//424 74//87 
f 214//408 222//417 80//95 
f 80//95 79//94 214//408 
f 212//425 211//426 218//427 
f 218//427 228//428 212//425 
f 211//429 210//430 219//413 
f 219//413 218//412 211//429 
f 210//431 81//96 80//95 
f 80//95 219//416 210//431 
f 227//424 208//392 229//432 
f 229//432 230//433 227//424 
f 221//415 220//414 224//420 
f 224//420 223//419 221//415 
f 220//418 222//417 231//434 
f 231//434 232//435 220//418 
f 233//436 234//437 235//438 
f 235//438 236//439 233//436 
f 217//411 216//410 237//440 
f 237//440 238//441 217//411 
f 239//442 231//434 217//411 
f 217//411 238//441 239//442 
f 240//443 241//444 235//438 
f 235//438 242//445 240//443 
f 226//423 225//422 243//446 
f 243//446 244//447 226//423 
f 245//448 229//432 226//423 
f 226//423 244//447 245//448 
f 246//449 242//445 235//438 
f 235//438 234//437 246//449 
f 230//433 229//432 245//448 
f 245//448 247//450 230//433 
f 237//440 216//410 230//433 
f 230//433 247//450 237//440 
f 248//451 236//439 235//438 
f 235//438 241//444 248//451 
f 232//435 231//434 239//442 
f 239//442 249//452 232//435 
f 243//446 225//422 232//435 
f 232//435 249//452 243//446 
f 215//409 227//424 230//433 
f 230//433 216//410 215//409 
f 217//411 231//434 222//417 
f 222//417 214//408 217//411 
f 224//421 220//418 232//435 
f 232//435 225//422 224//421 
f 226//423 229//432 208//392 
f 208//392 207//391 226//423 
f 238//453 237//453 234//453 
f 234//454 233//454 238//454 
f 237//455 247//455 246//455 
f 246//456 234//456 237//456 
f 247//457 245//458 242//459 
f 242//459 246//460 247//457 
f 245//458 244//461 240//462 
f 240//462 242//459 245//458 
f 244//463 243//464 241//465 
f 241//465 240//466 244//463 
f 243//464 249//467 248//468 
f 248//468 241//465 243//464 
f 249//469 239//470 236//471 
f 236//471 248//472 249//469 
f 239//470 238//473 233//474 
f 233//474 236//471 239//470 
f 167//475 166//476 13//477 
f 13//477 16//478 167//475 
f 166//476 168//479 17//480 
f 17//480 13//477 166//476 
f 168//479 169//481 19//482 
f 19//482 17//480 168//479 
f 169//483 170//484 21//485 
f 21//485 19//486 169//483 
f 170//484 171//487 23//488 
f 23//488 21//485 170//484 
f 171//489 172//489 25//489 
f 25//490 23//490 171//490 
f 172//491 173//491 27//491 
f 27//492 25//492 172//492 
f 173//493 167//493 16//493 
f 16//494 27//494 173//494 
f 57//495 60//495 15//495 
f 15//496 14//496 57//496 
f 60//497 71//497 28//497 
f 28//498 15//498 60//498 
f 71//499 70//499 26//499 
f 26//500 28//500 71//500 
f 70//501 67//501 24//501 
f 24//502 26//502 70//502 
f 67//503 66//503 22//503 
f 22//504 24//504 67//504 
f 66//505 63//505 20//505 
f 20//506 22//506 66//506 
f 63//507 62//507 18//507 
f 18//508 20//508 63//508 
f 62//509 57//509 14//509 
f 14//510 18//510 62//510 
f 92//511 175//512 179//513 
f 179//513 180//514 92//511 
f 209//515 201//375 204//378 
f 204//378 213//516 209//515 
f 228//428 218//427 221//517 
f 221//517 250//518 228//428 
f 223//519 206//520 205//521 
f 205//521 251//522 223//519 
f 250//518 221//517 223//519 
f 223//519 251//522 250//518 
f 252//523 253//524 3//3 
f 3//3 2//2 252//523 
f 253//524 254//525 5//5 
f 5//5 3//3 253//524 
f 254//525 255//526 7//7 
f 7//7 5//5 254//525 
f 256//527 257//528 258//529 
f 258//529 259//530 256//527 
f 260//531 261//532 262//533 
f 262//533 263//534 260//531 
f 260//531 263//534 264//535 
f 264//535 265//536 260//531 
f 266//537 265//538 264//539 
f 264//539 267//540 266//537 
f 266//541 267//542 268//543 
f 268//543 269//544 266//541 
f 270//545 269//546 268//547 
f 268//547 271//548 270//545 
f 270//545 271//548 272//549 
f 272//549 273//550 270//545 
f 274//551 273//552 272//553 
f 272//553 275//554 274//551 
f 274//551 275//554 262//555 
f 262//555 261//556 274//551 
f 276//557 277//558 278//559 
f 278//559 279//560 276//557 
f 280//561 281//561 282//561 
f 282//561 283//561 280//561 
f 283//562 282//562 284//562 
f 284//562 285//562 283//562 
f 285//563 284//564 286//563 
f 286//563 287//563 285//563 
f 287//565 286//565 288//565 
f 288//565 289//565 287//565 
f 289//566 288//566 290//566 
f 290//566 291//567 289//566 
f 291//568 290//568 281//568 
f 281//568 280//568 291//568 
f 292//569 293//570 294//571 
f 294//571 295//571 292//569 
f 295//572 294//572 296//572 
f 296//572 297//572 295//572 
f 297//573 296//573 298//574 
f 298//574 299//575 297//573 
f 300//576 301//576 55//59 
f 55//59 54//59 300//576 
f 302//577 303//578 304//579 
f 304//579 305//580 302//577 
f 306//581 307//582 302//577 
f 302//577 305//580 306//581 
f 308//583 307//584 306//585 
f 306//585 309//586 308//583 
f 310//587 311//588 308//589 
f 308//589 309//590 310//587 
f 312//591 311//592 310//593 
f 310//593 313//594 312//591 
f 314//595 315//596 312//591 
f 312//591 313//594 314//595 
f 316//597 315//598 314//599 
f 314//599 317//600 316//597 
f 304//601 303//602 316//597 
f 316//597 317//600 304//601 
f 318//603 319//604 75//88 
f 75//88 74//87 318//603 
f 75//90 319//605 320//606 
f 320//606 77//91 75//90 
f 79//94 82//97 321//607 
f 321//607 322//608 79//94 
f 323//609 324//610 325//611 
f 325//611 326//612 323//609 
f 327//613 328//614 293//570 
f 293//570 292//569 327//613 
f 299//575 298//574 329//615 
f 329//615 330//616 299//575 
f 252//617 2//109 92//108 
f 92//108 331//618 252//617 
f 332//619 331//618 333//620 
f 333//620 334//621 332//619 
f 334//621 333//620 335//622 
f 335//622 336//623 334//621 
f 335//622 100//117 99//116 
f 99//116 337//624 335//622 
f 338//625 339//626 253//524 
f 253//524 252//523 338//625 
f 339//626 340//627 254//525 
f 254//525 253//524 339//626 
f 340//627 341//628 255//526 
f 255//526 254//525 340//627 
f 341//628 342//629 343//630 
f 343//630 255//526 341//628 
f 255//526 343//630 107//124 
f 107//124 7//7 255//526 
f 344//631 337//632 345//633 
f 345//633 346//634 344//631 
f 337//632 99//130 111//129 
f 111//129 345//633 337//632 
f 346//634 345//633 347//635 
f 347//635 348//636 346//634 
f 345//633 111//129 114//133 
f 114//133 347//635 345//633 
f 348//636 347//635 349//637 
f 349//637 350//638 348//636 
f 347//635 114//133 117//136 
f 117//136 349//637 347//635 
f 350//639 349//640 351//641 
f 351//641 352//642 350//639 
f 349//640 117//142 120//141 
f 120//141 351//641 349//640 
f 338//643 252//617 331//618 
f 331//618 332//619 338//643 
f 336//623 335//622 337//624 
f 337//624 344//644 336//623 
f 107//145 343//645 353//646 
f 353//646 121//146 107//145 
f 343//645 342//647 354//648 
f 354//648 353//646 343//645 
f 353//646 354//648 256//527 
f 256//527 355//649 353//646 
f 355//649 256//527 259//530 
f 259//530 356//650 355//649 
f 126//153 356//650 351//651 
f 351//651 120//154 126//153 
f 356//650 259//530 352//652 
f 352//652 351//651 356//650 
f 342//629 341//628 357//653 
f 357//653 354//654 342//629 
f 341//628 340//627 358//655 
f 358//655 357//653 341//628 
f 340//627 339//626 359//656 
f 359//656 358//655 340//627 
f 339//626 338//625 332//657 
f 332//657 359//656 339//626 
f 304//658 317//659 360//660 
f 360//660 305//661 304//658 
f 317//662 314//663 313//664 
f 313//664 360//665 317//662 
f 358//655 359//656 361//666 
f 361//666 362//667 358//655 
f 359//656 332//657 334//668 
f 334//668 361//666 359//656 
f 305//669 360//670 309//671 
f 309//671 306//672 305//669 
f 360//673 313//674 310//675 
f 310//675 309//676 360//673 
f 362//667 361//666 363//677 
f 363//677 364//678 362//667 
f 361//666 334//668 336//679 
f 336//679 363//677 361//666 
f 259//680 365//681 350//639 
f 350//639 352//642 259//680 
f 365//682 364//678 348//683 
f 348//683 350//684 365//682 
f 364//678 363//677 346//685 
f 346//685 348//683 364//678 
f 363//677 336//679 344//686 
f 344//686 346//685 363//677 
f 354//648 366//687 257//528 
f 257//528 256//527 354//648 
f 365//681 259//680 258//688 
f 258//688 367//689 365//681 
f 365//690 367//691 368//692 
f 368//692 364//693 365//690 
f 364//694 368//695 369//696 
f 369//696 362//697 364//694 
f 362//697 369//696 370//698 
f 370//698 358//699 362//697 
f 357//653 358//655 370//700 
f 370//700 371//701 357//653 
f 357//653 371//701 366//702 
f 366//702 354//654 357//653 
f 372//703 373//704 374//705 
f 374//705 375//706 372//703 
f 376//707 373//704 372//703 
f 372//703 377//708 376//707 
f 378//709 376//710 377//711 
f 377//711 379//712 378//709 
f 380//713 381//714 378//715 
f 378//715 379//716 380//713 
f 382//717 383//718 381//719 
f 381//719 380//720 382//717 
f 384//721 385//722 383//718 
f 383//718 382//717 384//721 
f 386//723 385//724 384//725 
f 384//725 387//726 386//723 
f 375//727 374//728 386//723 
f 386//723 387//726 375//727 
f 373//704 388//729 389//730 
f 389//730 374//705 373//704 
f 390//731 388//729 373//704 
f 373//704 376//707 390//731 
f 391//732 390//733 376//710 
f 376//710 378//709 391//732 
f 381//714 392//734 391//735 
f 391//735 378//715 381//714 
f 383//718 393//736 392//737 
f 392//737 381//719 383//718 
f 385//722 394//738 393//736 
f 393//736 383//718 385//722 
f 395//739 394//740 385//724 
f 385//724 386//723 395//739 
f 374//728 389//741 395//739 
f 395//739 386//723 374//728 
f 396//742 372//703 375//706 
f 375//706 397//743 396//742 
f 377//708 372//703 396//742 
f 396//742 398//744 377//708 
f 379//712 377//711 398//745 
f 398//745 399//746 379//712 
f 400//747 380//713 379//716 
f 379//716 399//748 400//747 
f 401//749 382//717 380//720 
f 380//720 400//750 401//749 
f 402//751 384//721 382//717 
f 382//717 401//749 402//751 
f 387//726 384//725 402//752 
f 402//752 403//753 387//726 
f 397//754 375//727 387//726 
f 387//726 403//753 397//754 
f 388//729 257//528 366//687 
f 366//687 389//730 388//729 
f 390//731 258//529 257//528 
f 257//528 388//729 390//731 
f 367//689 258//688 390//733 
f 390//733 391//732 367//689 
f 392//734 368//692 367//691 
f 367//691 391//735 392//734 
f 393//736 369//696 368//695 
f 368//695 392//737 393//736 
f 394//738 370//698 369//696 
f 369//696 393//736 394//738 
f 371//701 370//700 394//740 
f 394//740 395//739 371//701 
f 389//741 366//702 371//701 
f 371//701 395//739 389//741 
f 294//755 293//756 298//757 
f 298//757 296//758 294//755 
f 293//756 328//759 329//760 
f 329//760 298//757 293//756 
f 331//618 92//108 404//761 
f 404//761 405//762 331//618 
f 333//763 331//764 405//765 
f 405//765 406//766 333//763 
f 333//767 406//768 407//769 
f 407//769 335//770 333//767 
f 335//622 407//771 408//772 
f 408//772 100//117 335//622 
f 409//773 180//280 100//279 
f 100//279 408//774 409//773 
f 405//775 404//776 410//777 
f 410//777 277//778 405//775 
f 406//779 405//780 277//558 
f 277//558 276//557 406//779 
f 411//781 407//769 406//768 
f 406//768 276//782 411//781 
f 412//783 408//784 407//785 
f 407//785 411//786 412//783 
f 409//787 408//788 412//789 
f 412//789 413//790 409//787 
f 410//791 404//792 409//793 
f 409//793 413//794 410//791 
f 414//795 415//796 416//797 
f 416//797 417//798 414//795 
f 418//799 414//800 417//801 
f 417//801 419//802 418//799 
f 420//803 421//804 418//805 
f 418//805 419//806 420//803 
f 422//807 423//808 421//809 
f 421//809 420//810 422//807 
f 424//811 423//812 422//813 
f 422//813 425//814 424//811 
f 416//815 415//816 424//817 
f 424//817 425//818 416//815 
f 278//819 426//820 415//796 
f 415//796 414//795 278//819 
f 279//560 278//559 414//800 
f 414//800 418//799 279//560 
f 421//804 427//821 279//822 
f 279//822 418//805 421//804 
f 423//808 428//823 427//824 
f 427//824 421//809 423//808 
f 429//825 428//826 423//812 
f 423//812 424//811 429//825 
f 415//816 426//827 429//828 
f 429//828 424//817 415//816 
f 277//778 410//777 426//820 
f 426//820 278//819 277//778 
f 427//821 411//781 276//782 
f 276//782 279//822 427//821 
f 428//823 412//783 411//786 
f 411//786 427//824 428//823 
f 413//790 412//789 428//826 
f 428//826 429//825 413//790 
f 426//827 410//791 413//794 
f 413//794 429//828 426//827 
f 416//829 280//830 283//831 
f 283//831 417//832 416//829 
f 417//832 283//831 285//833 
f 285//833 419//834 417//832 
f 419//834 285//833 287//835 
f 287//835 420//836 419//834 
f 420//836 287//835 289//837 
f 289//837 422//838 420//836 
f 422//838 289//837 291//839 
f 291//839 425//840 422//838 
f 425//840 291//839 280//830 
f 280//830 416//829 425//840 
f 281//841 330//842 327//843 
f 327//843 282//844 281//841 
f 290//845 299//846 330//847 
f 330//847 281//848 290//845 
f 299//846 290//845 288//849 
f 288//849 297//850 299//846 
f 297//851 288//852 286//853 
f 286//853 295//854 297//851 
f 295//855 286//856 284//857 
f 284//857 292//858 295//855 
f 292//858 284//857 282//859 
f 282//859 327//860 292//858 
f 330//842 323//861 326//862 
f 326//862 327//843 330//842 
f 327//613 326//863 325//864 
f 325//864 328//614 327//613 
f 328//759 325//865 324//866 
f 324//866 329//760 328//759 
f 329//615 324//867 323//868 
f 323//868 330//616 329//615 
f 430//869 431//870 432//871 
f 432//871 433//872 430//869 
f 433//873 432//874 301//875 
f 301//875 300//876 433//873 
f 434//877 205//384 77//383 
f 77//383 320//878 434//877 
f 319//879 435//880 434//881 
f 434//881 320//882 319//879 
f 319//604 318//603 436//883 
f 436//883 435//884 319//604 
f 353//646 300//885 54//393 
f 54//393 121//146 353//646 
f 126//153 209//396 430//886 
f 430//886 356//650 126//153 
f 356//650 430//886 433//887 
f 433//887 355//649 356//650 
f 355//649 433//887 300//885 
f 300//885 353//646 355//649 
f 82//398 55//401 301//888 
f 301//888 321//889 82//398 
f 321//889 301//888 432//890 
f 432//890 437//891 321//889 
f 431//892 438//893 437//891 
f 437//891 432//890 431//892 
f 431//892 213//407 212//406 
f 212//406 438//893 431//892 
f 214//408 439//894 440//895 
f 440//895 215//409 214//408 
f 441//896 442//897 443//898 
f 443//898 444//899 441//896 
f 444//900 443//901 445//902 
f 445//902 322//608 444//900 
f 446//903 434//881 435//880 
f 435//880 447//904 446//903 
f 435//884 448//905 449//906 
f 449//906 447//907 435//884 
f 74//87 227//424 436//883 
f 436//883 318//603 74//87 
f 214//408 79//94 322//608 
f 322//608 445//902 214//408 
f 212//425 228//428 441//908 
f 441//908 438//909 212//425 
f 438//910 441//896 444//899 
f 444//899 437//911 438//910 
f 437//912 444//900 322//608 
f 322//608 321//607 437//912 
f 227//424 450//913 451//914 
f 451//914 436//883 227//424 
f 442//897 446//903 447//904 
f 447//904 443//898 442//897 
f 443//901 452//915 453//916 
f 453//916 445//902 443//901 
f 454//917 455//918 456//919 
f 456//919 457//920 454//917 
f 439//894 458//921 459//922 
f 459//922 440//895 439//894 
f 460//923 458//921 439//894 
f 439//894 453//916 460//923 
f 461//924 462//925 456//919 
f 456//919 463//926 461//924 
f 448//905 464//927 465//928 
f 465//928 449//906 448//905 
f 466//929 464//927 448//905 
f 448//905 451//914 466//929 
f 467//930 457//920 456//919 
f 456//919 462//925 467//930 
f 450//913 468//931 466//929 
f 466//929 451//914 450//913 
f 459//922 468//931 450//913 
f 450//913 440//895 459//922 
f 469//932 463//926 456//919 
f 456//919 455//918 469//932 
f 452//915 470//933 460//923 
f 460//923 453//916 452//915 
f 465//928 470//933 452//915 
f 452//915 449//906 465//928 
f 215//409 440//895 450//913 
f 450//913 227//424 215//409 
f 439//894 214//408 445//902 
f 445//902 453//916 439//894 
f 447//907 449//906 452//915 
f 452//915 443//901 447//907 
f 448//905 435//884 436//883 
f 436//883 451//914 448//905 
f 458//934 454//934 457//934 
f 457//935 459//935 458//935 
f 459//936 457//936 467//936 
f 467//937 468//937 459//937 
f 468//938 467//939 462//940 
f 462//940 466//941 468//938 
f 466//941 462//940 461//942 
f 461//942 464//943 466//941 
f 464//944 461//945 463//946 
f 463//946 465//947 464//944 
f 465//947 463//946 469//948 
f 469//948 470//949 465//947 
f 470//950 469//951 455//952 
f 455//952 460//953 470//950 
f 460//953 455//952 454//954 
f 454//954 458//955 460//953 
f 397//956 261//957 260//958 
f 260//958 396//959 397//956 
f 396//959 260//958 265//960 
f 265//960 398//961 396//959 
f 398//961 265//960 266//962 
f 266//962 399//963 398//961 
f 399//964 266//965 269//966 
f 269//966 400//967 399//964 
f 400//967 269//966 270//968 
f 270//968 401//969 400//967 
f 401//970 270//970 273//970 
f 273//971 402//971 401//971 
f 402//972 273//972 274//972 
f 274//973 403//973 402//973 
f 403//974 274//974 261//974 
f 261//975 397//975 403//975 
f 302//976 263//976 262//976 
f 262//977 303//977 302//977 
f 303//978 262//978 275//978 
f 275//979 316//979 303//979 
f 316//980 275//980 272//980 
f 272//981 315//981 316//981 
f 315//982 272//982 271//982 
f 271//983 312//983 315//983 
f 312//984 271//984 268//984 
f 268//985 311//985 312//985 
f 311//986 268//986 267//986 
f 267//987 308//987 311//987 
f 308//988 267//988 264//988 
f 264//989 307//989 308//989 
f 307//990 264//990 263//990 
f 263//991 302//991 307//991 
f 92//511 180//514 409//992 
f 409//992 404//993 92//511 
f 209//515 213//516 431//870 
f 431//870 430//869 209//515 
f 228//428 250//518 442//994 
f 442//994 441//908 228//428 
f 446//995 251//522 205//521 
f 205//521 434//996 446//995 
f 250//518 251//522 446//995 
f 446//995 442//994 250//518 
# 936 faces

#
# object Sphere001
#

v  -1.7088 37.6503 1.3627
v  -1.7088 38.3085 0.9827
v  -2.2789 37.9794 0.9827
v  -2.2789 37.3212 0.9827
v  -1.7088 36.9921 0.9827
v  -1.1388 37.3212 0.9827
v  -1.1388 37.9794 0.9827
v  -1.7088 38.3085 0.2227
v  -2.2789 37.9794 0.2227
v  -2.2789 37.3212 0.2227
v  -1.7088 36.9921 0.2227
v  -1.1388 37.3212 0.2227
v  -1.1388 37.9794 0.2227
v  -1.7088 37.6503 -0.1573
# 14 vertices

vn -0.0000 -0.0000 1.0000
vn 0.0000 0.8973 0.4413
vn -0.7771 0.4487 0.4413
vn -0.7771 -0.4487 0.4413
vn -0.0000 -0.8973 0.4413
vn 0.7771 -0.4487 0.4413
vn 0.7771 0.4487 0.4413
vn 0.0000 0.8973 -0.4413
vn -0.7771 0.4487 -0.4413
vn -0.7771 -0.4487 -0.4413
vn -0.0000 -0.8973 -0.4413
vn 0.7771 -0.4487 -0.4413
vn 0.7771 0.4487 -0.4413
vn 0.0000 0.0000 -1.0000
# 14 vertex normals

o Sphere001
g Sphere001
f 471//997 472//998 473//999 
f 471//997 473//999 474//1000 
f 471//997 474//1000 475//1001 
f 471//997 475//1001 476//1002 
f 471//997 476//1002 477//1003 
f 471//997 477//1003 472//998 
f 472//998 478//1004 479//1005 
f 472//998 479//1005 473//999 
f 473//999 479//1005 480//1006 
f 473//999 480//1006 474//1000 
f 474//1000 480//1006 481//1007 
f 474//1000 481//1007 475//1001 
f 475//1001 481//1007 482//1008 
f 475//1001 482//1008 476//1002 
f 476//1002 482//1008 483//1009 
f 476//1002 483//1009 477//1003 
f 477//1003 483//1009 478//1004 
f 477//1003 478//1004 472//998 
f 484//1010 479//1005 478//1004 
f 484//1010 480//1006 479//1005 
f 484//1010 481//1007 480//1006 
f 484//1010 482//1008 481//1007 
f 484//1010 483//1009 482//1008 
f 484//1010 478//1004 483//1009 
# 24 faces

#
# object Sphere002
#

v  0.9128 37.6503 1.3921
v  0.9128 38.3085 1.0121
v  0.3428 37.9794 1.0121
v  0.3428 37.3212 1.0121
v  0.9128 36.9921 1.0121
v  1.4828 37.3212 1.0121
v  1.4828 37.9794 1.0121
v  0.9128 38.3085 0.2521
v  0.3428 37.9794 0.2521
v  0.3428 37.3212 0.2521
v  0.9128 36.9921 0.2521
v  1.4828 37.3212 0.2521
v  1.4828 37.9794 0.2521
v  0.9128 37.6503 -0.1279
# 14 vertices

vn -0.0000 -0.0000 1.0000
vn 0.0000 0.8973 0.4413
vn -0.7771 0.4487 0.4413
vn -0.7771 -0.4487 0.4413
vn -0.0000 -0.8973 0.4413
vn 0.7771 -0.4487 0.4413
vn 0.7771 0.4487 0.4413
vn 0.0000 0.8973 -0.4413
vn -0.7771 0.4487 -0.4413
vn -0.7771 -0.4487 -0.4413
vn -0.0000 -0.8973 -0.4413
vn 0.7771 -0.4487 -0.4413
vn 0.7771 0.4487 -0.4413
vn 0.0000 0.0000 -1.0000
# 14 vertex normals

o Sphere002
g Sphere002
f 485//1011 486//1012 487//1013 
f 485//1011 487//1013 488//1014 
f 485//1011 488//1014 489//1015 
f 485//1011 489//1015 490//1016 
f 485//1011 490//1016 491//1017 
f 485//1011 491//1017 486//1012 
f 486//1012 492//1018 493//1019 
f 486//1012 493//1019 487//1013 
f 487//1013 493//1019 494//1020 
f 487//1013 494//1020 488//1014 
f 488//1014 494//1020 495//1021 
f 488//1014 495//1021 489//1015 
f 489//1015 495//1021 496//1022 
f 489//1015 496//1022 490//1016 
f 490//1016 496//1022 497//1023 
f 490//1016 497//1023 491//1017 
f 491//1017 497//1023 492//1018 
f 491//1017 492//1018 486//1012 
f 498//1024 493//1019 492//1018 
f 498//1024 494//1020 493//1019 
f 498//1024 495//1021 494//1020 
f 498//1024 496//1022 495//1021 
f 498//1024 497//1023 496//1022 
f 498//1024 492//1018 497//1023 
# 24 faces

